<svg id="Layer_1" data-name="Layer 1" xmlns="http://www.w3.org/2000/svg" xmlns:xlink="http://www.w3.org/1999/xlink" viewBox="0 0 60.15 24"><defs><linearGradient id="linear-gradient" x1="60.09" y1="24.06" x2="61.31" y2="24.06" gradientUnits="userSpaceOnUse"><stop offset="0" stop-color="#fccc95"/><stop offset="0.02" stop-color="#fcca8d"/><stop offset="0.09" stop-color="#fcc572"/><stop offset="0.17" stop-color="#fcc15c"/><stop offset="0.26" stop-color="#fcbe4b"/><stop offset="0.38" stop-color="#fcbc40"/><stop offset="0.54" stop-color="#fcba39"/><stop offset="1" stop-color="#fcba37"/></linearGradient><linearGradient id="linear-gradient-2" x1="40.62" y1="16.87" x2="41.11" y2="16.87" xlink:href="#linear-gradient"/><linearGradient id="linear-gradient-3" x1="50.59" y1="22.46" x2="50.65" y2="22.46" xlink:href="#linear-gradient"/><linearGradient id="linear-gradient-4" x1="36.58" y1="12.83" x2="36.58" y2="12.83" xlink:href="#linear-gradient"/><linearGradient id="linear-gradient-5" x1="39.91" y1="24.93" x2="40.06" y2="24.93" xlink:href="#linear-gradient"/><linearGradient id="linear-gradient-6" x1="37.52" y1="22.07" x2="66.57" y2="22.07" xlink:href="#linear-gradient"/><linearGradient id="linear-gradient-7" x1="17.61" y1="15.51" x2="21.16" y2="26.63" xlink:href="#linear-gradient"/><linearGradient id="linear-gradient-8" x1="16.3" y1="10.09" x2="23.58" y2="32.96" xlink:href="#linear-gradient"/></defs><title>circle-logo</title><polygon points="34.77 18.73 34.77 18.73 34.77 18.73 34.77 18.73"/><polygon points="56.66 18.5 56.66 18.5 56.66 18.5 56.66 18.5"/><polygon points="42.53 14.65 42.53 14.65 42.53 14.65 42.53 14.65"/><polygon points="35.1 12.54 35.1 12.54 35.1 12.54 35.1 12.54"/><polygon points="43.91 20.3 43.91 20.3 43.91 20.3 43.91 20.3"/><polygon points="47.5 17.77 47.5 17.77 47.5 17.77 47.5 17.77"/><polygon points="43.57 19.84 43.57 19.84 43.57 19.84 43.57 19.84"/><polygon points="37.43 13.66 37.43 13.66 37.43 13.66 37.43 13.66"/><polygon points="46.04 12.99 46.04 12.99 46.04 12.99 46.04 12.99"/><polygon points="36.73 12.85 36.73 12.85 36.73 12.85 36.73 12.85"/><polygon points="52.37 13.06 52.37 13.06 52.37 13.06 52.37 13.06"/><polygon points="57.14 9.82 57.14 9.82 57.14 9.82 57.14 9.82"/><path d="M48.44,23.8a1,1,0,0,0-.31-.38.71.71,0,0,0-.47-.16,1,1,0,0,0-.66.3,2.61,2.61,0,0,0-.52.71,3.88,3.88,0,0,0-.34.94A4.63,4.63,0,0,0,46,26.37a3.21,3.21,0,0,0,.06.63h0a1.72,1.72,0,0,0,.21.52,1.06,1.06,0,0,0,.94.51.82.82,0,0,0,.58-.29,2.81,2.81,0,0,0,.45-.7,4.87,4.87,0,0,0,.3-1h0a5.75,5.75,0,0,0,.11-1,3.55,3.55,0,0,0-.06-.67A2.09,2.09,0,0,0,48.44,23.8ZM48.2,26a2.9,2.9,0,0,1-.2.81,2.58,2.58,0,0,1-.38.64h0a.63.63,0,0,1-.43.23,1,1,0,0,1-.36-.06c0-.05,0-.09,0-.14a1.79,1.79,0,0,1,0-.47,4.84,4.84,0,0,1,.12-1.13,4,4,0,0,1,.33-.92,2.67,2.67,0,0,1,.5-.69c.18-.17.24-.26.44-.26a1.81,1.81,0,0,1,.1.37h0a3.1,3.1,0,0,1,.05.63,4.67,4.67,0,0,1-.11,1l.24,0Z" transform="translate(-7.82 -9.15)"/><polygon points="40.78 15.2 40.78 15.2 40.78 15.2 40.78 15.2"/><polygon points="39.18 14.41 39.18 14.41 39.18 14.41 39.18 14.41"/><path d="M61.58,25.93h0c0-.16,0-.39,0-.71h0c0-.32,0-.58,0-.79s0-.39,0-.56h0c0-.17,0-.31,0-.42v-.18l0,0-.08,0h0a3.34,3.34,0,0,0-.92.67h0a3.22,3.22,0,0,0-.68,1.1h0a10.05,10.05,0,0,0-.4,1.15,3,3,0,0,0-.15.89,1.27,1.27,0,0,0,0,.26.61.61,0,0,0,.15.26h0a.75.75,0,0,0,.3.18,1.33,1.33,0,0,0,.47.07.88.88,0,0,0,.32-.07l.27-.17h0a1.34,1.34,0,0,0,.25-.23h0a2.47,2.47,0,0,0,.21-.27h0a4.09,4.09,0,0,0,.4-.72v-.06Q61.6,26.16,61.58,25.93Zm-.86,1.19c-.07.08,0,0-.09.1a.76.76,0,0,1-.23.13.56.56,0,0,1-.22,0h-.09a2.75,2.75,0,0,1,.14-.68A5,5,0,0,1,60.5,26a3.07,3.07,0,0,1,.55-1.07l.18-.17h0c0,.2,0,.16,0,.48h0c0,.32,0,.56,0,.72a1.82,1.82,0,0,0,0,.32,3.56,3.56,0,0,1-.39.61h0A2.43,2.43,0,0,1,60.72,27.12Z" transform="translate(-7.82 -9.15)"/><polygon points="51.42 18.13 51.42 18.13 51.42 18.13 51.42 18.13"/><polygon points="38.31 16.06 38.31 16.06 38.31 16.06 38.31 16.06"/><polygon points="53.7 14.3 53.7 14.3 53.7 14.3 53.7 14.3"/><polygon points="38.84 18.74 38.84 18.74 38.84 18.74 38.84 18.74"/><polygon points="33.82 8.11 33.82 8.11 33.82 8.11 33.82 8.11"/><path d="M63.15,23.71v.52l.2-.48c.28-.68.54-1.36.78-2h0q.15-.43.3-.9h0c.09-.31.19-.62.28-.93h0c.1-.31.18-.61.25-.91a7.81,7.81,0,0,0,.14-.87h0c0-.36.05-.64.05-.86a1.53,1.53,0,0,0-.09-.61h0a.34.34,0,0,0-.3-.23.66.66,0,0,0-.54.36h0a3.05,3.05,0,0,0-.34.83h0c-.08.32-.17.68-.26,1.06a9.37,9.37,0,0,0-.22,1.13h0c0,.37-.08.7-.1,1s0,.5-.06.62h0c0,.26,0,.5-.05.73s0,.46,0,.65,0,.36,0,.51v.41Z" transform="translate(-7.82 -9.15)"/><polygon points="33.66 8.66 33.66 8.66 33.66 8.66 33.66 8.66"/><polygon points="33.12 7.49 33.12 7.49 33.12 7.49 33.12 7.49"/><path d="M40.38,20.85h0c.11-.34.21-.64.29-.87h0c0-.1.08-.24.15-.41h0q.1-.25.21-.54h0l.24-.6h0c.07-.21.14-.42.21-.61s.12-.38.16-.55a2,2,0,0,0,.06-.45.47.47,0,0,0-.05-.24.26.26,0,0,0-.21-.11.75.75,0,0,0-.5.18,1.59,1.59,0,0,0-.35.46,5.18,5.18,0,0,0-.33.7c-.1.26-.22.56-.36.89h0c-.07.29-.15.6-.23.91s-.14.63-.18.94-.09.61-.14.91-.09.57-.13.83h0q-.11,1-.18,1.89l-.06.85.26-.81.37-1.11c.13-.4.27-.79.4-1.18S40.26,21.19,40.38,20.85Zm.46-1.91c-.08.2-.15.38-.21.55h0l0-.11c.13-.33.25-.63.36-.89a1.73,1.73,0,0,1,.1-.24l0,.09C41,18.55,40.92,18.75,40.84,18.94Z" transform="translate(-7.82 -9.15)"/><polygon points="39.98 18.58 39.98 18.58 39.98 18.58 39.98 18.58"/><path d="M67.65,26.64c-.13.12-.67.35-.8.46l-.19-1.43-.14.12c-.3.26-.74.6-1,.8a1.22,1.22,0,0,1-.19.12c-.13.08,0,0-.09,0h0a1.61,1.61,0,0,1-.34.15h0l-.14,0c0-.11,0,.16,0,0a2.28,2.28,0,0,1,0-.36,2.2,2.2,0,0,1,.06-.37c0-.12,0-.24.07-.34s0-.19.08-.26c.12-.33.38-.86.82-1.78A16.62,16.62,0,0,0,66.55,22c.2-.62.41-1.24.62-1.87a7,7,0,0,0,.34-2v-.56a5.73,5.73,0,0,0-.06-.84,1.8,1.8,0,0,0-.23-.58,2.55,2.55,0,0,0-.55-.73s0,0,0-.07l-.12-.11a2.33,2.33,0,0,0-.28-.26l-.38-.29h0a1.43,1.43,0,0,0-.78-.17,2.14,2.14,0,0,0-1.07.4,3.6,3.6,0,0,0-.89.86,6.86,6.86,0,0,0-.76,1.29h0a9.06,9.06,0,0,0-.57,1.62c-.14.58-.27,1.12-.4,1.62h0a7.33,7.33,0,0,0-.2,1.59,3.73,3.73,0,0,0-1,.31,3.85,3.85,0,0,0-1,.66h0a3.83,3.83,0,0,0-.8,1h0c-.2.35-.34.68-.5,1,0,.08-.07.17-.11.25l-.12.06a1.67,1.67,0,0,1-.63.14,1.21,1.21,0,0,1,0-.2,1.45,1.45,0,0,1,0-.31,5.81,5.81,0,0,1,.12-.61,5.81,5.81,0,0,0,.12-.61,1.86,1.86,0,0,0,0-.36.68.68,0,0,0-.22-.52.53.53,0,0,0-.23-.13l-.06,0a2,2,0,0,0-.11-.47.81.81,0,0,0-.21-.24h0a.89.89,0,0,0-.29-.15h0a.89.89,0,0,0-.32-.05,1.37,1.37,0,0,0-.8.24h0a3.23,3.23,0,0,0-.6.57,1.86,1.86,0,0,0-.14.25.2.2,0,0,0,0-.08.29.29,0,0,0-.16-.1l-.27,0a3.12,3.12,0,0,0,0-.33,1,1,0,0,0-.13-.39h0l-.18-.11h0l-.32,0-.31,0h0a1.33,1.33,0,0,0-.34.22h0l-.15.17h0a1.32,1.32,0,0,0-.13.29,4.27,4.27,0,0,0-.22.62h0c-.06.24-.08.34-.16.69-.1-.15-.16-.26-.2-.3a4.45,4.45,0,0,0-1-.86,4.91,4.91,0,0,0-1.21-.61h0A4,4,0,0,0,48,21.63a3.64,3.64,0,0,0-1.57.31,3.45,3.45,0,0,0-1.18.88,1.09,1.09,0,0,0-.13.17L45,22.88a1.14,1.14,0,0,0-.19-.19,1.6,1.6,0,0,0-.05-.21,1.37,1.37,0,0,0-.25-.48,1.13,1.13,0,0,0-.37-.32h0a1,1,0,0,0-.46-.11,2.47,2.47,0,0,0-.79.12c-.15,0-.12.1-.24.16l.12-.29c.2-.47.38-1,.55-1.47a14,14,0,0,0,.42-1.5,6.63,6.63,0,0,0,.16-1.41,6.8,6.8,0,0,0,0-.8,3.73,3.73,0,0,0-.2-.83,1.43,1.43,0,0,0-.2-.3,1.27,1.27,0,0,0-.34-.31,2.28,2.28,0,0,0-.22-.14,1.32,1.32,0,0,0-.36-.13,2.91,2.91,0,0,0-.76-.08,2.78,2.78,0,0,0-1.07.28,2.18,2.18,0,0,0-.68.5l0,0,0,.05a4.28,4.28,0,0,0-.69.82l0,.08-.06.12c-.17.35-.19.35-.34.7l-.06.17a6.72,6.72,0,0,0-.41,1c-.11.38-.19.71-.28,1.05s-.15.52-.21.82l0,.21c-.05.3-.1.44-.14.65-.1.6-.17,1-.24,1.67s-.16,1.49-.2,2.08,0,1.18-.06,1.66h0c0,.49,0,.91,0,1.2a6.48,6.48,0,0,0,0,.65,2.28,2.28,0,0,0,.12.61,1.66,1.66,0,0,0,.46.53l.08.06a1,1,0,0,0,.49.22,2,2,0,0,0,.29.45.94.94,0,0,0,1,0,1.38,1.38,0,0,0,.36-.39l.7-1.22c0,.09,0,0,0,.11s.07.16.21.3h0a1.51,1.51,0,0,0,.59.36h0l.18.05a1.56,1.56,0,0,0,.16.2,2.29,2.29,0,0,0,.66.5,2.8,2.8,0,0,0,.9.12,3.84,3.84,0,0,0,.87-.11,4.9,4.9,0,0,0,.88-.32,3.36,3.36,0,0,0,.67-.37l.06,0h0l.14.08a2.37,2.37,0,0,0,.59.45,2.12,2.12,0,0,0,1.15.3,2.59,2.59,0,0,0,.88-.16,4.11,4.11,0,0,0,.86-.5,3.48,3.48,0,0,0,.62-.65,5.91,5.91,0,0,0,.54-.86,6.66,6.66,0,0,0,.3-1,4.58,4.58,0,0,0,.09-.9,4.75,4.75,0,0,0-.11-1.11,3.11,3.11,0,0,0-.31-.8v0c.15.1-.11,0,.09.1l.19.18.63.61c0,.28-.09.45-.13.72h0c0,.33-.08.65-.1,1a7.86,7.86,0,0,0,0,.79,5.74,5.74,0,0,0,0,.6,2.57,2.57,0,0,0,.12.59,1.15,1.15,0,0,0,.35.46,3.25,3.25,0,0,0,.83.28s.18.21.19.23a.35.35,0,0,0,.18.19.87.87,0,0,0,.5.14.71.71,0,0,0,.26-.05.63.63,0,0,0,.21-.17,1.35,1.35,0,0,0,.19-.32,5.11,5.11,0,0,0,.21-.49l.86-2.67a2,2,0,0,0,.15.33c.15.27.18.41.42.57h0c.08.05.17.3.27.33a2.16,2.16,0,0,0,.51.34,1.83,1.83,0,0,0,.87.2h.1v0c.09.3.12.15.29.39a2.8,2.8,0,0,0,.7.79h0a.61.61,0,0,0,.14.07,3.31,3.31,0,0,0,.8.57,1.79,1.79,0,0,0,.86.17,2.15,2.15,0,0,0,.7-.12,4.19,4.19,0,0,0,.69-.31,4.54,4.54,0,0,0,.65-.46,4.16,4.16,0,0,0,.37-.33c.15.17.2.44.37.53h0l.12.09.07,0a3.09,3.09,0,0,0,.75.41,1.5,1.5,0,0,0,.46.2,1.89,1.89,0,0,0,.33,0,1.68,1.68,0,0,0,.41-.07l.46-.18.48-.25.46-.29c.35-.23,1-.59,1.36-.89Zm-23.43.12L44,27h0c-.13.14-.23.26-.35.38l-.36.26-.05,0a1.36,1.36,0,0,1,.11-.28,4.56,4.56,0,0,1,.39-.66c.15-.22.28-.44.46-.66h0A5,5,0,0,0,44.22,26.76ZM44.4,24ZM39.91,25l.15-.23L40,25l0,0Zm22.67,3.59a2.21,2.21,0,0,1-.42-.72l-.06-.15-.11.12c-.19.19-.39.37-.59.55h0a4.38,4.38,0,0,1-.65.44,3.67,3.67,0,0,1-.67.31h0a2.17,2.17,0,0,1-.66.11,1.67,1.67,0,0,1-.81-.19h0a1.78,1.78,0,0,1-.57-.52,2.33,2.33,0,0,1-.34-.75,3.34,3.34,0,0,1-.11-.78v-.14l-.25.09a2.08,2.08,0,0,1-.6.09,1.52,1.52,0,0,1-.86-.21,1.64,1.64,0,0,1-.53-.58h0a2.84,2.84,0,0,1-.29-.82,9.21,9.21,0,0,1-.16-.94v-.09h-.29L53.2,28.33c-.07.19-.14.35-.2.48a2,2,0,0,1-.18.3l-.17.14a.71.71,0,0,1-.21,0,.73.73,0,0,1-.45-.12h0a.8.8,0,0,1-.26-.31h0a1.69,1.69,0,0,1-.12-.48,3.69,3.69,0,0,1,0-.58,7.5,7.5,0,0,1,0-.77c0-.3.06-.61.1-.94h0c0-.29.09-.59.14-.89v-.05l0,0c-.21-.19-.43-.41-.67-.64a5.21,5.21,0,0,0-.79-.67l-.65-.46-.09-.05-.12.16,0,.05,0,.06a3.67,3.67,0,0,1,.33.91,5.08,5.08,0,0,1,.11,1.09,4.48,4.48,0,0,1-.1.88,5.19,5.19,0,0,1-.28.87h0a4.37,4.37,0,0,1-.45.78h0a3,3,0,0,1-.6.63h0a3.09,3.09,0,0,1-.73.42,2.32,2.32,0,0,1-.84.15A2.08,2.08,0,0,1,45.83,29h0a2.12,2.12,0,0,1-.67-.63l-.07-.09L45,28.4a4.2,4.2,0,0,1-.76.47,5.19,5.19,0,0,1-.86.31h0a3.67,3.67,0,0,1-.85.11,2.54,2.54,0,0,1-.86-.12h0a1.25,1.25,0,0,1-.5-.3.9.9,0,0,1-.25-.43,1.7,1.7,0,0,1-.07-.51,4.12,4.12,0,0,1,0-.42A3.28,3.28,0,0,1,41,27h0a4.26,4.26,0,0,1,.32-.71h0a6.18,6.18,0,0,1,.55-.82l.24-.25a1.88,1.88,0,0,0,.2-.2h0l.13-.17h0l.05-.19h0a.66.66,0,0,0-.07-.32l0,0-.18-.12H42.2a.67.67,0,0,0-.4.19h0a2.28,2.28,0,0,0-.47.63h0l-2.24,3.91a1.08,1.08,0,0,1-.34.36.7.7,0,0,1-.37.1.76.76,0,0,1-.46-.12.7.7,0,0,1-.25-.31h0a1.68,1.68,0,0,1-.12-.49q0-.3,0-.63c0-.29,0-.68,0-1.16h0c0-.49,0-1,.09-1.6s.09-1.19.16-1.82.15-1.25.25-1.85l.14-.76a7.85,7.85,0,0,1,.22-.94c.09-.34.19-.69.29-1.06a7.53,7.53,0,0,1,.38-1.07h0a8.2,8.2,0,0,1,.5-1h0a3.94,3.94,0,0,1,.62-.81h0a3,3,0,0,1,.74-.54,2.09,2.09,0,0,1,.87-.19,1.43,1.43,0,0,1,.6.11.93.93,0,0,1,.36.32,1.34,1.34,0,0,1,.19.5h0a3.27,3.27,0,0,1,.06.65,6.29,6.29,0,0,1-.16,1.38c-.11.5-.25,1-.41,1.5s-.35,1-.55,1.47-.39.9-.57,1.28h0c-.18.38-.34.71-.48,1h0l-.28.51h0l-.71,1.47h0l0,.08v.08l.12-.09s0,0,0,0c.19-.23.46-.42.67-.69l.64-.82h0c.21-.26.43-.53.64-.81h0a2.76,2.76,0,0,1,.45-.5h0a2.09,2.09,0,0,1,.56-.28h0a2,2,0,0,1,.72-.11A.73.73,0,0,1,44,22a1.1,1.1,0,0,1,.31.26h0a1.38,1.38,0,0,1,.21.42,1.94,1.94,0,0,1,.08.56,1.64,1.64,0,0,1-.2.71,5.13,5.13,0,0,1-.43.75c-.15.22-.31.43-.49.65s-.35.44-.5.66a3.87,3.87,0,0,0-.39.67,1.59,1.59,0,0,0-.16.7.59.59,0,0,0,.16.47.77.77,0,0,0,.87,0h0a2.37,2.37,0,0,0,.39-.28h0a4.6,4.6,0,0,0,.39-.38h0l.31-.35,0,0v0a6.32,6.32,0,0,1-.06-.75,5,5,0,0,1,.25-1.7,3.38,3.38,0,0,1,.7-1.23h0a3.15,3.15,0,0,1,1.11-.82,3.53,3.53,0,0,1,1.48-.3,3.81,3.81,0,0,1,1.32.22h0a4.59,4.59,0,0,1,1.17.59,4.85,4.85,0,0,1,1,.93l.33.4.14.17.07-.33c.09-.39.17-.71.23-1h0a4.76,4.76,0,0,1,.2-.63h0a1.38,1.38,0,0,1,.11-.24l.12-.14L52.9,22a1.1,1.1,0,0,1,.28,0h.27l.13.07a.42.42,0,0,1,0,.14h0c0,.09,0,.21,0,.37s0,.45,0,.79h0c0,.25,0,.48,0,.69v.33h.24l0-.06c.1-.2.23-.47.38-.8h0a4.12,4.12,0,0,1,.47-.8,2.55,2.55,0,0,1,.55-.54,1.21,1.21,0,0,1,.68-.2.69.69,0,0,1,.25,0h0a.72.72,0,0,1,.21.12h0l.09.08a.82.82,0,0,0,0,.11.55.55,0,0,1,.06.26c0,.08,0,.19,0,.35l-.12.6h0a5.47,5.47,0,0,0-.12.62h0a2.25,2.25,0,0,0,0,.41,1.76,1.76,0,0,0,0,.49h0a1,1,0,0,0,.16.33h0l.21.16h0a.86.86,0,0,0,.27.05,1.84,1.84,0,0,0,.75-.16h0l.16-.08h0v0l.12-.28c.16-.31.34-.64.53-1h0a3.78,3.78,0,0,1,1.73-1.54h0a3.37,3.37,0,0,1,1.06-.26h.09v-.09a8.53,8.53,0,0,1,.21-1.73h0c.12-.5.26-1,.4-1.62a8.62,8.62,0,0,1,.55-1.58h0A6.65,6.65,0,0,1,63.37,16a3.19,3.19,0,0,1,.84-.81,1.62,1.62,0,0,1,.89-.29.88.88,0,0,1,.55.17,1.24,1.24,0,0,1,.38.46,2.24,2.24,0,0,1,.21.69,4.5,4.5,0,0,1,.07.83v.55a6.82,6.82,0,0,1-.34,2c-.21.63-.41,1.25-.62,1.86h0a14.78,14.78,0,0,1-.74,1.82c-.44.92-.73,1.54-.85,1.88h0a1.73,1.73,0,0,0-.08.27h0a3.38,3.38,0,0,0-.08.34h0a2.5,2.5,0,0,0-.06.38,2.53,2.53,0,0,0,0,.38,3.15,3.15,0,0,0,0,.44,2.11,2.11,0,0,0,.09.38.86.86,0,0,0,.19.29.45.45,0,0,0,.32.12,1.17,1.17,0,0,0,.35-.06,2.39,2.39,0,0,0,.37-.17h0a4.1,4.1,0,0,0,.4-.23h0l.38-.26h0l.74-.58.19,1.34a12.5,12.5,0,0,1-1,.75l-.46.29-.47.24h0l-.45.18h0a1.42,1.42,0,0,1-.38.06,1.13,1.13,0,0,1-.3-.05h0a1.51,1.51,0,0,1-.44-.18A2,2,0,0,1,62.58,28.63Z" transform="translate(-7.82 -9.15)"/><path d="M61.25,23.22h0c0-.32,0-.28,0-.48h0l-.18.17A3.07,3.07,0,0,0,60.5,24a5,5,0,0,0-.27.72,2.75,2.75,0,0,0-.14.68h.09a.56.56,0,0,0,.22,0,.76.76,0,0,0,.23-.13c.08-.06,0,0,.09-.1a2.43,2.43,0,0,0,.2-.25h0a3.56,3.56,0,0,0,.39-.61,1.82,1.82,0,0,1,0-.32C61.26,23.78,61.25,23.54,61.25,23.22Z" transform="translate(-7.82 -9.15)" style="fill:url(#linear-gradient)"/><path d="M40.63,17.49c.06-.17.13-.35.21-.55s.15-.39.23-.6l0-.09a1.73,1.73,0,0,0-.1.24c-.11.26-.23.56-.36.89l0,.11Z" transform="translate(-7.82 -9.15)" style="fill:url(#linear-gradient-2)"/><path d="M50.59,22.43l0,.06s.08,0,0,0Z" transform="translate(-7.82 -9.15)" style="fill:url(#linear-gradient-3)"/><polygon points="36.58 12.83 36.58 12.83 36.58 12.83 36.58 12.83" style="fill:url(#linear-gradient-4)"/><path d="M40,25l.11-.2-.15.23h0Z" transform="translate(-7.82 -9.15)" style="fill:url(#linear-gradient-5)"/><path d="M65.64,27h0l-.38.26h0a4.1,4.1,0,0,1-.4.23h0a2.39,2.39,0,0,1-.37.17h0a1.17,1.17,0,0,1-.35.06.45.45,0,0,1-.32-.12.86.86,0,0,1-.19-.29,2.11,2.11,0,0,1-.09-.38,3.15,3.15,0,0,1,0-.44,2.53,2.53,0,0,1,0-.38,2.5,2.5,0,0,1,.06-.38h0a3.38,3.38,0,0,1,.08-.34h0a1.73,1.73,0,0,1,.08-.27h0c.12-.34.41-1,.85-1.88a14.78,14.78,0,0,0,.74-1.82h0c.21-.61.41-1.23.62-1.86a6.82,6.82,0,0,0,.34-2V17a4.5,4.5,0,0,0-.07-.83,2.24,2.24,0,0,0-.21-.69,1.24,1.24,0,0,0-.38-.46.88.88,0,0,0-.55-.17,1.62,1.62,0,0,0-.89.29,3.19,3.19,0,0,0-.84.81,6.65,6.65,0,0,0-.74,1.25h0a8.62,8.62,0,0,0-.55,1.58c-.14.58-.28,1.12-.4,1.62h0a8.53,8.53,0,0,0-.21,1.73v.09h-.09a3.37,3.37,0,0,0-1.06.26h0A3.78,3.78,0,0,0,58.59,24h0c-.19.35-.37.68-.53,1l-.12.28v0h0l-.16.08h0a1.84,1.84,0,0,1-.75.16.86.86,0,0,1-.27-.05h0l-.21-.16h0A1,1,0,0,1,56.3,25h0a1.76,1.76,0,0,1,0-.49,2.25,2.25,0,0,1,0-.41h0a5.47,5.47,0,0,1,.12-.62h0l.12-.6c0-.16,0-.27,0-.35a.55.55,0,0,0-.06-.26.82.82,0,0,1,0-.11l-.09-.08a.72.72,0,0,0-.21-.12h0a.69.69,0,0,0-.25,0,1.21,1.21,0,0,0-.68.2,2.55,2.55,0,0,0-.55.54,4.12,4.12,0,0,0-.47.8c-.15.33-.28.6-.38.8l0,.06h-.24V24c0-.21,0-.44,0-.69h0c0-.34,0-.61,0-.79s0-.28,0-.37h0a.42.42,0,0,0,0-.14L53.45,22h-.27a1.1,1.1,0,0,0-.28,0l-.15.05-.12.14a1.38,1.38,0,0,0-.11.24h0a4.76,4.76,0,0,0-.2.63h0c-.06.26-.14.58-.23,1l-.07.33-.14-.17-.33-.4a4.85,4.85,0,0,0-1-.93,4.59,4.59,0,0,0-1.17-.59h0A3.81,3.81,0,0,0,48.05,22a3.53,3.53,0,0,0-1.48.3,3.15,3.15,0,0,0-1.11.82h0a3.38,3.38,0,0,0-.7,1.23,5,5,0,0,0-.25,1.7,6.32,6.32,0,0,0,.06.75v0l0,0-.31.35h0a4.6,4.6,0,0,1-.39.38h0a2.37,2.37,0,0,1-.39.28h0a.77.77,0,0,1-.87,0h0a.59.59,0,0,1-.16-.47,1.59,1.59,0,0,1,.16-.7A3.87,3.87,0,0,1,43,26c.15-.22.32-.44.5-.66s.34-.43.49-.65A5.13,5.13,0,0,0,44.4,24a1.64,1.64,0,0,0,.2-.71,1.94,1.94,0,0,0-.08-.56,1.38,1.38,0,0,0-.21-.42h0A1.1,1.1,0,0,0,44,22a.73.73,0,0,0-.36-.08,2,2,0,0,0-.72.11h0a2.09,2.09,0,0,0-.56.28h0a2.76,2.76,0,0,0-.45.5h0c-.21.28-.43.55-.64.81h0l-.64.82c-.21.27-.48.46-.67.69t0,0l-.12.09V25.2l0-.08h0l.71-1.47h0l.28-.51h0c.14-.26.3-.59.48-1h0c.18-.38.37-.81.57-1.28s.38-1,.55-1.47.3-1,.41-1.5A6.29,6.29,0,0,0,43,16.54a3.27,3.27,0,0,0-.06-.65h0a1.34,1.34,0,0,0-.19-.5.93.93,0,0,0-.36-.32,1.43,1.43,0,0,0-.6-.11,2.13,2.13,0,0,0-.87.19,3,3,0,0,0-.74.54h0a3.94,3.94,0,0,0-.62.81h0a8.2,8.2,0,0,0-.5,1h0a9,9,0,0,0-.38,1.07c-.1.37-.2.72-.29,1.06a7.85,7.85,0,0,0-.22.94l-.14.76c-.1.6-.18,1.21-.25,1.85s-.12,1.24-.16,1.82-.07,1.11-.09,1.6h0c0,.48,0,.87,0,1.16s0,.43,0,.63a1.68,1.68,0,0,0,.12.49h0a.7.7,0,0,0,.25.31.76.76,0,0,0,.46.12.7.7,0,0,0,.37-.1,1.08,1.08,0,0,0,.34-.36l2.24-3.91h0a2.28,2.28,0,0,1,.47-.63h0a.67.67,0,0,1,.4-.19h.06l.18.12,0,0a.66.66,0,0,1,.07.32h0l-.05.19h0l-.13.17h0a1.88,1.88,0,0,1-.2.2l-.24.25a6.18,6.18,0,0,0-.55.82h0A4.26,4.26,0,0,0,41,27h0a3.28,3.28,0,0,0-.16.56,4.12,4.12,0,0,0,0,.42,1.7,1.7,0,0,0,.07.51.9.9,0,0,0,.25.43,1.25,1.25,0,0,0,.5.3h0a2.54,2.54,0,0,0,.86.12,3.67,3.67,0,0,0,.85-.11h0a5.19,5.19,0,0,0,.86-.31A4.2,4.2,0,0,0,45,28.4l.13-.11.07.09a2.12,2.12,0,0,0,.67.63h0a2.08,2.08,0,0,0,1.09.28,2.32,2.32,0,0,0,.84-.15,3.09,3.09,0,0,0,.73-.42h0a3,3,0,0,0,.6-.63h0a4.37,4.37,0,0,0,.45-.78h0a5.19,5.19,0,0,0,.28-.87,4.48,4.48,0,0,0,.1-.88,5.08,5.08,0,0,0-.11-1.09,3.67,3.67,0,0,0-.33-.91l0-.06,0-.05.12-.16.09.05.65.46h0a5.21,5.21,0,0,1,.79.67c.24.23.46.45.67.64l0,0v.05c-.05.3-.1.6-.14.89h0c0,.33-.07.64-.1.94a7.5,7.5,0,0,0,0,.77,3.69,3.69,0,0,0,0,.58,1.69,1.69,0,0,0,.12.48h0a.8.8,0,0,0,.26.31h0a.73.73,0,0,0,.45.12.71.71,0,0,0,.21,0l.17-.14a2,2,0,0,0,.18-.3c.06-.13.13-.29.2-.48l1.39-3.88h.29v.09a9.21,9.21,0,0,0,.16.94,2.84,2.84,0,0,0,.29.82h0a1.64,1.64,0,0,0,.53.58,1.52,1.52,0,0,0,.86.21,2.08,2.08,0,0,0,.6-.09l.25-.09v.14a3.34,3.34,0,0,0,.11.78,2.33,2.33,0,0,0,.34.75,1.78,1.78,0,0,0,.57.52,1.67,1.67,0,0,0,.81.19,2.17,2.17,0,0,0,.66-.11h0a3.67,3.67,0,0,0,.67-.31,4.38,4.38,0,0,0,.65-.44h0c.2-.18.4-.36.59-.55l.11-.12.06.15a2.21,2.21,0,0,0,.42.72,2,2,0,0,0,.48.42,1.51,1.51,0,0,0,.44.18h0a1.13,1.13,0,0,0,.3.05,1.42,1.42,0,0,0,.38-.06h0l.45-.18h0l.47-.24.46-.29a12.5,12.5,0,0,0,1-.75l-.19-1.34Zm-26.4-2.76-.26.81L39,24.2q.08-.93.18-1.89h0c0-.26.09-.53.13-.83s.09-.6.14-.91.11-.62.18-.94.16-.62.23-.91h0c.14-.33.26-.63.36-.89a5.18,5.18,0,0,1,.33-.7,1.59,1.59,0,0,1,.35-.46h0a.75.75,0,0,1,.5-.18.26.26,0,0,1,.21.11.47.47,0,0,1,.05.24,2,2,0,0,1-.06.45h0c0,.17-.1.35-.16.55h0c-.07.19-.14.4-.21.61h0L41,19h0q-.11.29-.21.54h0c-.07.17-.12.31-.15.41h0l-.29.88h0c-.12.34-.24.71-.37,1.1s-.27.78-.4,1.18Zm9.31,1.81a4.87,4.87,0,0,1-.3,1,2.81,2.81,0,0,1-.45.7.82.82,0,0,1-.58.29,1,1,0,0,1-.56-.14h0a1,1,0,0,1-.38-.37,1.72,1.72,0,0,1-.21-.52h0a3.21,3.21,0,0,1-.06-.63,4.63,4.63,0,0,1,.13-1.16,3.88,3.88,0,0,1,.34-.94,2.61,2.61,0,0,1,.52-.71,1,1,0,0,1,.66-.3.71.71,0,0,1,.47.16,1,1,0,0,1,.31.38,2.09,2.09,0,0,1,.16.55h0a3.55,3.55,0,0,1,.06.67A5.75,5.75,0,0,1,48.55,26.05Zm13.06.27a4.09,4.09,0,0,1-.4.72,2.47,2.47,0,0,1-.21.27h0a1.34,1.34,0,0,1-.25.23h0l-.27.17a.88.88,0,0,1-.32.07,1.33,1.33,0,0,1-.47-.07.75.75,0,0,1-.3-.18h0a.61.61,0,0,1-.15-.26h0a1.27,1.27,0,0,1,0-.26,3,3,0,0,1,.15-.89,10.05,10.05,0,0,1,.4-1.15h0a3.22,3.22,0,0,1,.68-1.1h0a3.34,3.34,0,0,1,.92-.67h0l.08,0,0,0v.18c0,.11,0,.25,0,.42h0c0,.17,0,.35,0,.56s0,.47,0,.79h0c0,.32,0,.55,0,.71h0q0,.22,0,.33v.06Zm1.74-2.57-.2.48V23.3c0-.15,0-.32,0-.51s0-.41,0-.65,0-.47.05-.73h0c0-.12,0-.33.06-.62s.06-.63.1-1h0a9.37,9.37,0,0,1,.22-1.13c.09-.38.18-.74.26-1.06h0a3.05,3.05,0,0,1,.34-.83h0a.66.66,0,0,1,.54-.36.34.34,0,0,1,.3.23h0a1.53,1.53,0,0,1,.09.61c0,.22,0,.5-.05.86h0A7.81,7.81,0,0,1,65,19h0c-.07.3-.15.6-.25.91h0c-.09.31-.19.62-.28.93h0q-.15.46-.3.9h0C63.89,22.39,63.63,23.07,63.35,23.75Z" transform="translate(-7.82 -9.15)" style="fill:url(#linear-gradient-6)"/><path d="M23.41,14.57c-1.05,0-2.09,0-3.14,0-.8,0-1,.21-1,1,0,1.88,0,3.77,0,5.65v.63l-.59-.05a4.19,4.19,0,0,0-4.23,2.77,2.08,2.08,0,0,0,1.1,2.68,3.21,3.21,0,0,0,2.18.24,3.93,3.93,0,0,0,3.17-3.85c-.13-2.14,0-4.3,0-6.45,0-.73.21-.92.92-.92.54,0,1.07,0,1.6,0s.65-.18.66-.92C24.05,14.93,24,14.56,23.41,14.57Z" transform="translate(-7.82 -9.15)" style="fill:url(#linear-gradient-7)"/><path d="M19.83,9.15a12,12,0,1,0,12,12A12,12,0,0,0,19.83,9.15Zm4.79,7.51c-.52,0-1,0-1.55,0s-.56.14-.56.53c0,2,0,4,0,6h0v.31a1.49,1.49,0,0,0,0,.21,4.73,4.73,0,0,1-.47,2.18L22,26A6.88,6.88,0,0,1,19,27.77a7.27,7.27,0,0,1-2.78.22,3.55,3.55,0,0,1-1.16-.44h0A2.64,2.64,0,0,1,14,26a2.77,2.77,0,0,1,.11-1.47,1.54,1.54,0,0,0,.08-.19h0a4.46,4.46,0,0,1,4.52-2.82h.17c0-.17,0-.4,0-.59,0-1.78,0-3.56,0-5.34,0-1,.36-1.32,1.33-1.31h4.37c.86,0,1.05.25,1.05,1.28C25.68,16.39,25.43,16.65,24.62,16.66Z" transform="translate(-7.82 -9.15)" style="fill:url(#linear-gradient-8)"/></svg>