<svg xmlns="http://www.w3.org/2000/svg" xmlns:xlink="http://www.w3.org/1999/xlink" viewBox="0 0 277.43 116.13"><defs><linearGradient id="linear-gradient" x1="41.21" y1="5.13" x2="75.55" y2="112.96" gradientUnits="userSpaceOnUse"><stop offset="0" stop-color="#fff"/><stop offset="0.04" stop-color="#feefde"/><stop offset="0.07" stop-color="#fee0bf"/><stop offset="0.11" stop-color="#fdd6a8"/><stop offset="0.14" stop-color="#fdcf9b"/><stop offset="0.17" stop-color="#fdcd96"/><stop offset="0.19" stop-color="#fdcb8d"/><stop offset="0.25" stop-color="#fdc672"/><stop offset="0.31" stop-color="#fdc25c"/><stop offset="0.39" stop-color="#fdbf4b"/><stop offset="0.49" stop-color="#fdbd40"/><stop offset="0.62" stop-color="#fdbb39"/><stop offset="1" stop-color="#fdbb37"/></linearGradient><linearGradient id="linear-gradient-2" x1="140.75" y1="145.73" x2="277.9" y2="145.73" gradientUnits="userSpaceOnUse"><stop offset="0" stop-color="#fff"/><stop offset="0.01" stop-color="#fff6ec"/><stop offset="0.02" stop-color="#fee9d1"/><stop offset="0.03" stop-color="#fedfbb"/><stop offset="0.04" stop-color="#fdd7aa"/><stop offset="0.05" stop-color="#fdd19f"/><stop offset="0.07" stop-color="#fdce98"/><stop offset="0.13" stop-color="#fdcd96"/><stop offset="0.15" stop-color="#fdcb8d"/><stop offset="0.21" stop-color="#fdc672"/><stop offset="0.28" stop-color="#fdc25c"/><stop offset="0.36" stop-color="#fdbf4b"/><stop offset="0.46" stop-color="#fdbd40"/><stop offset="0.6" stop-color="#fdbb39"/><stop offset="1" stop-color="#fdbb37"/></linearGradient></defs><title>circle-logo</title><g style="isolation:isolate"><g id="Layer_1" data-name="Layer 1"><circle cx="58.07" cy="58.07" r="56.57" style="stroke:#231f20;stroke-miterlimit:10;stroke-width:3px;fill:url(#linear-gradient)"/><path d="M62.09,149.42V146.9l.06-22.67c0-3.19.86-4.06,4.05-4.06,4.21,0,8.42.09,12.62,0,2.46-.06,2.57,1.42,2.55,3.21,0,2.95-.44,3.62-2.62,3.67s-4.28,0-6.42,0c-2.86,0-3.68.78-3.7,3.68-.06,8.62,0,16.91,0,25.87.52,8.33-6.77,14.22-12.72,15.42a12.78,12.78,0,0,1-8.74-.94c-4.32-2.26-5.84-6.07-4.42-10.76,2-6.73,9.92-11.88,17-11.11Z" transform="translate(-6.36 -88.46)" style="fill:#fff;stroke:#231f20;stroke-miterlimit:10;stroke-width:0.5px"/><path d="M83.76,119c-5.85,0-11.71,0-17.56-.06-3.87,0-5.29,1.36-5.3,5.26,0,7.14,0,14.28-.07,21.41,0,.75-.09,1.7-.13,2.36l-.7,0c-8.92,0-14.56,3.55-18.1,11.31h0c-.11.25-.21.51-.32.76a11.29,11.29,0,0,0-.47,5.9,10.73,10.73,0,0,0,4.43,6.33h0A14.08,14.08,0,0,0,50.14,174c4.31.5,6.9,0,11.15-.9C67.52,171.7,73,166.05,73,166l.34-.54c1.58-2.67,1.88-6.41,1.89-8.73a8.08,8.08,0,0,1,0-.85c0-.4,0-.79,0-1.18v-.07h0c-.08-8,0-16,0-24,0-1.56.69-2.16,2.22-2.1,2.07.07,4.14,0,6.21,0,3.26,0,4.27-1.08,4.29-4.42C88,120,87.2,119,83.76,119Zm-2.39,4.42c0,2.95-.44,3.62-2.62,3.67s-4.28,0-6.42,0c-2.86,0-3.7.78-3.7,3.68,0,8.84.05,16.61,0,25.87,0,8.34-6.77,14.22-12.72,15.42a12.78,12.78,0,0,1-8.74-.94c-4.32-2.25-5.84-6.07-4.42-10.76,2-6.73,9.92-11.88,17-11.11l2.36.22V146.9l.06-22.67c0-3.19.86-4.06,4.05-4.06,4.21,0,8.42.09,12.62,0C81.28,120.1,81.39,121.58,81.37,123.37Z" transform="translate(-6.36 -88.46)" style="fill:#231f20;stroke:#231f20;stroke-miterlimit:10;stroke-width:0.5px"/><g style="mix-blend-mode:multiply"><path d="M281.64,166.76c-1.43,1.22-2.8,2.32-4.11,3.28q-.86.61-1.77,1.2c-.61.4-1.21.76-1.8,1.07a12,12,0,0,1-1.7.74,4.7,4.7,0,0,1-1.48.27,1.65,1.65,0,0,1-1.17-.44,3.11,3.11,0,0,1-.75-1.17,7.81,7.81,0,0,1-.4-1.68,15.77,15.77,0,0,1-.12-2,14.72,14.72,0,0,1,.11-1.72c.07-.59.17-1.16.28-1.73s.23-1.09.35-1.57.25-.89.37-1.23q.85-2.31,4-8.78a72.4,72.4,0,0,0,3.49-8.55c1-2.88,1.94-5.79,2.93-8.74a31.89,31.89,0,0,0,1.58-9.55c0-.9,0-1.77,0-2.62a23.34,23.34,0,0,0-.33-4,11.53,11.53,0,0,0-1.05-3.36,6.5,6.5,0,0,0-1.91-2.33,4.63,4.63,0,0,0-2.86-.88,8,8,0,0,0-4.46,1.41,16.58,16.58,0,0,0-4.06,3.92,32.12,32.12,0,0,0-3.51,5.93,42.2,42.2,0,0,0-2.61,7.51q-1,4.07-1.89,7.61a38,38,0,0,0-1,8.18,16.89,16.89,0,0,0-5.11,1.27,17.38,17.38,0,0,0-4.67,3,17,17,0,0,0-3.64,4.43q-1.38,2.43-2.51,4.66-.5,1-.9,2a8.15,8.15,0,0,1-2.3.36,2.91,2.91,0,0,1-1.09-.22,2.43,2.43,0,0,1-.93-.73A4.22,4.22,0,0,1,236,161a8,8,0,0,1-.25-2.14,12.32,12.32,0,0,1,.18-1.88q.18-1.12.57-2.88c.27-1.16.46-2.11.57-2.84a11,11,0,0,0,.18-1.7,3.38,3.38,0,0,0-.28-1.41,3.14,3.14,0,0,0-.77-1,3.27,3.27,0,0,0-1.13-.66,3.75,3.75,0,0,0-1.32-.23,5.91,5.91,0,0,0-3.47,1.05,12.38,12.38,0,0,0-2.68,2.59,21.17,21.17,0,0,0-2.25,3.86c-.71,1.55-1.31,2.8-1.78,3.75h-.4a37.64,37.64,0,0,1,.11-4.25q.18-2.43.18-3.75c0-.74,0-1.32-.06-1.75a1.87,1.87,0,0,0-.3-1,1.18,1.18,0,0,0-.77-.43,10.55,10.55,0,0,0-1.45-.08,10.42,10.42,0,0,0-1.37.08,2.16,2.16,0,0,0-.93.36,2.6,2.6,0,0,0-.66.73,7,7,0,0,0-.57,1.26,25,25,0,0,0-.93,3c-.26,1-.57,2.28-.92,3.73l-.42-.52a23.9,23.9,0,0,0-4.83-4.45,24.44,24.44,0,0,0-5.56-2.82,18.94,18.94,0,0,0-6.36-1,17.17,17.17,0,0,0-7.15,1.44,15.74,15.74,0,0,0-5.38,4,17.73,17.73,0,0,0-3.37,5.93,24.93,24.93,0,0,0-1.18,8.14c0,.12,0,.25,0,.37l-.73.87-1.59,1.95c-.56.67-1.14,1.34-1.75,2s-1.21,1.25-1.8,1.78a11.42,11.42,0,0,1-1.74,1.29,3.07,3.07,0,0,1-1.55.49,2.89,2.89,0,0,1-2-.56,2.42,2.42,0,0,1-.62-1.88,7.11,7.11,0,0,1,.71-3.05,21.44,21.44,0,0,1,1.79-3.08c.71-1,1.49-2.05,2.32-3.07s1.61-2,2.32-3.06a24.54,24.54,0,0,0,2.06-3.58,8.56,8.56,0,0,0,1-3.55,9.16,9.16,0,0,0-.39-2.76,6.75,6.75,0,0,0-1.07-2.11,5.07,5.07,0,0,0-1.59-1.35,4.19,4.19,0,0,0-1.92-.47,10.75,10.75,0,0,0-6.29,1.93,16.81,16.81,0,0,0-2.74,2.41c-1.18,1.32-1.82,2.3-2.81,3.6s-1.54,2.23-2.42,3.44c-1,1.37-1.07,1.56-2.21,3.18l1.55-3s1-2,1.31-2.69c.11-.29.81-1.89,1.1-2.48.62-1.25,1.29-2.8,2.15-4.6s1.75-3.81,2.68-6,1.79-4.53,2.57-6.89a67.8,67.8,0,0,0,1.95-7.07,31.22,31.22,0,0,0,.77-6.59,16.41,16.41,0,0,0-.29-3.16,6.73,6.73,0,0,0-1-2.51,4.69,4.69,0,0,0-1.88-1.64,6.7,6.7,0,0,0-3-.59,9.51,9.51,0,0,0-4.29,1,13.28,13.28,0,0,0-3.61,2.61,20.21,20.21,0,0,0-3,3.87,40.64,40.64,0,0,0-2.38,4.65,39.35,39.35,0,0,0-1.78,5.06c-.49,1.74-.95,3.41-1.39,5s-.79,3.07-1.05,4.47-.47,2.58-.65,3.55q-.67,4.22-1.16,8.68t-.77,8.55q-.28,4.1-.43,7.5c-.09,2.28-.14,4.11-.14,5.49,0,1.05,0,2.05.13,3a8,8,0,0,0,.58,2.45,3.91,3.91,0,0,0,1.36,1.68,4.17,4.17,0,0,0,2.43.62,3.64,3.64,0,0,0,2-.53,5.78,5.78,0,0,0,1.72-1.83l10.51-18.36a10.24,10.24,0,0,1,2.11-2.8,2.79,2.79,0,0,1,1.57-.8.86.86,0,0,1,.77.47A2.5,2.5,0,0,1,169,159a1.49,1.49,0,0,1-.22.76,3.92,3.92,0,0,1-.61.79c-.26.28-.57.59-.93.94l-1.17,1.18a30.34,30.34,0,0,0-2.61,4,24.84,24.84,0,0,0-1.56,3.36,15.32,15.32,0,0,0-.75,2.75,13.47,13.47,0,0,0-.2,2.06,9.56,9.56,0,0,0,.34,2.51,5.1,5.1,0,0,0,1.27,2.18,6.47,6.47,0,0,0,2.56,1.55,12.6,12.6,0,0,0,4.2.58,16.59,16.59,0,0,0,4.09-.53,22.05,22.05,0,0,0,7.79-3.72,14.79,14.79,0,0,0,2.08-1.91q.31.61.69,1.2a11.51,11.51,0,0,0,3.66,3.59,10,10,0,0,0,5.38,1.37,11.27,11.27,0,0,0,4.11-.75,14,14,0,0,0,3.56-2,15.2,15.2,0,0,0,2.89-3,20.47,20.47,0,0,0,2.15-3.75,22.33,22.33,0,0,0,1.34-4.15,20,20,0,0,0,.46-4.25,23.47,23.47,0,0,0-.52-5.2,18.84,18.84,0,0,0-1.55-4.38l.28-.4c.86.58,1.89,1.29,3.08,2.13a30.51,30.51,0,0,1,3.63,3.09c.65.65,1.28,1.26,1.9,1.85l-.12.6c-.27,1.61-.51,3.19-.71,4.74s-.36,3-.48,4.41-.18,2.62-.18,3.66a22.55,22.55,0,0,0,.16,2.77,8.12,8.12,0,0,0,.64,2.4,4.07,4.07,0,0,0,1.38,1.68,4,4,0,0,0,2.36.62,2.86,2.86,0,0,0,1.18-.23,2.7,2.7,0,0,0,1-.8,7.88,7.88,0,0,0,.91-1.49,23,23,0,0,0,.95-2.3L227.84,159h.58c.19,1.51.44,3,.75,4.45a14.26,14.26,0,0,0,1.43,4,8,8,0,0,0,2.6,2.86,7.7,7.7,0,0,0,4.33,1.09,10.25,10.25,0,0,0,2.07-.22,16.05,16.05,0,0,0,.52,3.33,11.62,11.62,0,0,0,1.68,3.65,8.61,8.61,0,0,0,2.83,2.57,8,8,0,0,0,4,1,10.13,10.13,0,0,0,3.28-.55,17.7,17.7,0,0,0,3.22-1.46,21.37,21.37,0,0,0,3.09-2.14,34.73,34.73,0,0,0,2.81-2.6,11.59,11.59,0,0,0,2.07,3.53,10.19,10.19,0,0,0,2.37,2,7.88,7.88,0,0,0,3.72,1.16,6.63,6.63,0,0,0,1.91-.32,18.4,18.4,0,0,0,2.16-.84,24.42,24.42,0,0,0,2.25-1.18c.76-.44,1.49-.89,2.18-1.34a61.4,61.4,0,0,0,5-3.72Zm-128-9.4c.22-2.91.5-5.86.86-8.86.18-1.22.38-2.53.59-3.92s.43-2.81.65-4.25.5-2.89.86-4.36l1.05-4.28c.63-1.55,1.19-2.95,1.69-4.21a26.07,26.07,0,0,1,1.48-3.21,7.53,7.53,0,0,1,1.58-2,3,3,0,0,1,2-.71c.51,0,.77.38.77,1.14a8.73,8.73,0,0,1-.29,2c-.2.79-.44,1.64-.74,2.54s-.64,1.85-1,2.82-.72,1.92-1.08,2.83-.7,1.75-1,2.54-.56,1.44-.72,2c-.37,1.12-.82,2.49-1.36,4.09l-1.73,5.15q-.93,2.75-1.86,5.55C154.74,154,154.17,155.76,153.64,157.36Zm46.52,8.54a20.05,20.05,0,0,1-1.37,4.54,11.67,11.67,0,0,1-2,3.11,3.26,3.26,0,0,1-2.36,1.23,4.49,4.49,0,0,1-4-2.16,7.37,7.37,0,0,1-.89-2.31,13.34,13.34,0,0,1-.29-2.82,22.66,22.66,0,0,1,.57-5.32,19.6,19.6,0,0,1,1.58-4.31,11.53,11.53,0,0,1,2.32-3.2,4,4,0,0,1,2.79-1.25,3,3,0,0,1,1.89.61,4.47,4.47,0,0,1,1.29,1.64,9.69,9.69,0,0,1,.75,2.45,17.2,17.2,0,0,1,.25,3A24.68,24.68,0,0,1,200.16,165.9Zm56.5,4.44a12.46,12.46,0,0,1-1,1.22,9.75,9.75,0,0,1-1.09,1.05,5.8,5.8,0,0,1-1.2.74,3.05,3.05,0,0,1-1.27.29,6.38,6.38,0,0,1-2-.28,3.07,3.07,0,0,1-1.21-.73,2.27,2.27,0,0,1-.59-1,3.87,3.87,0,0,1-.16-1.11,14.66,14.66,0,0,1,.64-4,56.34,56.34,0,0,1,1.88-5.33,14.13,14.13,0,0,1,7.27-8,2.49,2.49,0,0,1,.07.72c0,.5,0,1.15.05,2s0,1.67.06,2.63.05,2.19.07,3.69.06,2.62.11,3.35a13.16,13.16,0,0,0,.18,1.61A21.71,21.71,0,0,1,256.66,170.34Zm10-15.33v-1.92c0-.68,0-1.47,0-2.37s.07-1.91.14-3,.15-2.24.25-3.42q.07-.87.27-2.94c.12-1.37.29-2.92.5-4.63a41,41,0,0,1,1-5.26c.45-1.79.87-3.44,1.25-5a12.33,12.33,0,0,1,1.52-3.73,2.62,2.62,0,0,1,2.11-1.45,1.09,1.09,0,0,1,1,.75,7.26,7.26,0,0,1,.34,2.69c0,1-.07,2.3-.22,4a33.48,33.48,0,0,1-.65,4c-.31,1.41-.69,2.83-1.13,4.26s-.9,2.88-1.35,4.34-.92,2.86-1.38,4.2Q268.61,150.24,266.62,155Z" transform="translate(-6.36 -88.46)" style="fill:#231f20"/><path d="M281.64,166.76c-1.43,1.22-2.8,2.32-4.11,3.28q-.86.61-1.77,1.2c-.61.4-1.21.76-1.8,1.07a12,12,0,0,1-1.7.74,4.7,4.7,0,0,1-1.48.27,1.65,1.65,0,0,1-1.17-.44,3.11,3.11,0,0,1-.75-1.17,7.81,7.81,0,0,1-.4-1.68,15.77,15.77,0,0,1-.12-2,14.72,14.72,0,0,1,.11-1.72c.07-.59.17-1.16.28-1.73s.23-1.09.35-1.57.25-.89.37-1.23q.85-2.31,4-8.78a72.4,72.4,0,0,0,3.49-8.55c1-2.88,1.94-5.79,2.93-8.74a31.89,31.89,0,0,0,1.58-9.55c0-.9,0-1.77,0-2.62a23.34,23.34,0,0,0-.33-4,11.53,11.53,0,0,0-1.05-3.36,6.5,6.5,0,0,0-1.91-2.33,4.63,4.63,0,0,0-2.86-.88,8,8,0,0,0-4.46,1.41,16.58,16.58,0,0,0-4.06,3.92,32.12,32.12,0,0,0-3.51,5.93,42.2,42.2,0,0,0-2.61,7.51q-1,4.07-1.89,7.61a38,38,0,0,0-1,8.18,16.89,16.89,0,0,0-5.11,1.27,17.38,17.38,0,0,0-4.67,3,17,17,0,0,0-3.64,4.43q-1.38,2.43-2.51,4.66-.5,1-.9,2a8.15,8.15,0,0,1-2.3.36,2.91,2.91,0,0,1-1.09-.22,2.43,2.43,0,0,1-.93-.73A4.22,4.22,0,0,1,236,161a8,8,0,0,1-.25-2.14,12.32,12.32,0,0,1,.18-1.88q.18-1.12.57-2.88c.27-1.16.46-2.11.57-2.84a11,11,0,0,0,.18-1.7,3.38,3.38,0,0,0-.28-1.41,3.14,3.14,0,0,0-.77-1,3.27,3.27,0,0,0-1.13-.66,3.75,3.75,0,0,0-1.32-.23,5.91,5.91,0,0,0-3.47,1.05,12.38,12.38,0,0,0-2.68,2.59,21.17,21.17,0,0,0-2.25,3.86c-.71,1.55-1.31,2.8-1.78,3.75h-.4a37.64,37.64,0,0,1,.11-4.25q.18-2.43.18-3.75c0-.74,0-1.32-.06-1.75a1.87,1.87,0,0,0-.3-1,1.18,1.18,0,0,0-.77-.43,10.55,10.55,0,0,0-1.45-.08,10.42,10.42,0,0,0-1.37.08,2.16,2.16,0,0,0-.93.36,2.6,2.6,0,0,0-.66.73,7,7,0,0,0-.57,1.26,25,25,0,0,0-.93,3c-.26,1-.57,2.28-.92,3.73l-.42-.52a23.9,23.9,0,0,0-4.83-4.45,24.44,24.44,0,0,0-5.56-2.82,18.94,18.94,0,0,0-6.36-1,17.17,17.17,0,0,0-7.15,1.44,15.74,15.74,0,0,0-5.38,4,17.73,17.73,0,0,0-3.37,5.93,24.93,24.93,0,0,0-1.18,8.14c0,.12,0,.25,0,.37l-.73.87-1.59,1.95c-.56.67-1.14,1.34-1.75,2s-1.21,1.25-1.8,1.78a11.42,11.42,0,0,1-1.74,1.29,3.07,3.07,0,0,1-1.55.49,2.89,2.89,0,0,1-2-.56,2.42,2.42,0,0,1-.62-1.88,7.11,7.11,0,0,1,.71-3.05,21.44,21.44,0,0,1,1.79-3.08c.71-1,1.49-2.05,2.32-3.07s1.61-2,2.32-3.06a24.54,24.54,0,0,0,2.06-3.58,8.56,8.56,0,0,0,1-3.55,9.16,9.16,0,0,0-.39-2.76,6.75,6.75,0,0,0-1.07-2.11,5.07,5.07,0,0,0-1.59-1.35,4.19,4.19,0,0,0-1.92-.47,10.75,10.75,0,0,0-6.29,1.93,16.81,16.81,0,0,0-2.74,2.41c-1.18,1.32-1.82,2.3-2.81,3.6s-1.54,2.23-2.42,3.44c-1,1.37-1.07,1.56-2.21,3.18l1.55-3s1-2,1.31-2.69c.11-.29.81-1.89,1.1-2.48.62-1.25,1.29-2.8,2.15-4.6s1.75-3.81,2.68-6,1.79-4.53,2.57-6.89a67.8,67.8,0,0,0,1.95-7.07,31.22,31.22,0,0,0,.77-6.59,16.41,16.41,0,0,0-.29-3.16,6.73,6.73,0,0,0-1-2.51,4.69,4.69,0,0,0-1.88-1.64,6.7,6.7,0,0,0-3-.59,9.51,9.51,0,0,0-4.29,1,13.28,13.28,0,0,0-3.61,2.61,20.21,20.21,0,0,0-3,3.87,40.64,40.64,0,0,0-2.38,4.65,39.35,39.35,0,0,0-1.78,5.06c-.49,1.74-.95,3.41-1.39,5s-.79,3.07-1.05,4.47-.47,2.58-.65,3.55q-.67,4.22-1.16,8.68t-.77,8.55q-.28,4.1-.43,7.5c-.09,2.28-.14,4.11-.14,5.49,0,1.05,0,2.05.13,3a8,8,0,0,0,.58,2.45,3.91,3.91,0,0,0,1.36,1.68,4.17,4.17,0,0,0,2.43.62,3.64,3.64,0,0,0,2-.53,5.78,5.78,0,0,0,1.72-1.83l10.51-18.36a10.24,10.24,0,0,1,2.11-2.8,2.79,2.79,0,0,1,1.57-.8.86.86,0,0,1,.77.47A2.5,2.5,0,0,1,169,159a1.49,1.49,0,0,1-.22.76,3.92,3.92,0,0,1-.61.79c-.26.28-.57.59-.93.94l-1.17,1.18a30.34,30.34,0,0,0-2.61,4,24.84,24.84,0,0,0-1.56,3.36,15.32,15.32,0,0,0-.75,2.75,13.47,13.47,0,0,0-.2,2.06,9.56,9.56,0,0,0,.34,2.51,5.1,5.1,0,0,0,1.27,2.18,6.47,6.47,0,0,0,2.56,1.55,12.6,12.6,0,0,0,4.2.58,16.59,16.59,0,0,0,4.09-.53,22.05,22.05,0,0,0,7.79-3.72,14.79,14.79,0,0,0,2.08-1.91q.31.61.69,1.2a11.51,11.51,0,0,0,3.66,3.59,10,10,0,0,0,5.38,1.37,11.27,11.27,0,0,0,4.11-.75,14,14,0,0,0,3.56-2,15.2,15.2,0,0,0,2.89-3,20.47,20.47,0,0,0,2.15-3.75,22.33,22.33,0,0,0,1.34-4.15,20,20,0,0,0,.46-4.25,23.47,23.47,0,0,0-.52-5.2,18.84,18.84,0,0,0-1.55-4.38l.28-.4c.86.58,1.89,1.29,3.08,2.13a30.51,30.51,0,0,1,3.63,3.09c.65.65,1.28,1.26,1.9,1.85l-.12.6c-.27,1.61-.51,3.19-.71,4.74s-.36,3-.48,4.41-.18,2.62-.18,3.66a22.55,22.55,0,0,0,.16,2.77,8.12,8.12,0,0,0,.64,2.4,4.07,4.07,0,0,0,1.38,1.68,4,4,0,0,0,2.36.62,2.86,2.86,0,0,0,1.18-.23,2.7,2.7,0,0,0,1-.8,7.88,7.88,0,0,0,.91-1.49,23,23,0,0,0,.95-2.3L227.84,159h.58c.19,1.51.44,3,.75,4.45a14.26,14.26,0,0,0,1.43,4,8,8,0,0,0,2.6,2.86,7.7,7.7,0,0,0,4.33,1.09,10.25,10.25,0,0,0,2.07-.22,16.05,16.05,0,0,0,.52,3.33,11.62,11.62,0,0,0,1.68,3.65,8.61,8.61,0,0,0,2.83,2.57,8,8,0,0,0,4,1,10.13,10.13,0,0,0,3.28-.55,17.7,17.7,0,0,0,3.22-1.46,21.37,21.37,0,0,0,3.09-2.14,34.73,34.73,0,0,0,2.81-2.6,11.59,11.59,0,0,0,2.07,3.53,10.19,10.19,0,0,0,2.37,2,7.88,7.88,0,0,0,3.72,1.16,6.63,6.63,0,0,0,1.91-.32,18.4,18.4,0,0,0,2.16-.84,24.42,24.42,0,0,0,2.25-1.18c.76-.44,1.49-.89,2.18-1.34a61.4,61.4,0,0,0,5-3.72Zm-128-9.4c.22-2.91.5-5.86.86-8.86.18-1.22.38-2.53.59-3.92s.43-2.81.65-4.25.5-2.89.86-4.36l1.05-4.28c.63-1.55,1.19-2.95,1.69-4.21a26.07,26.07,0,0,1,1.48-3.21,7.53,7.53,0,0,1,1.58-2,3,3,0,0,1,2-.71c.51,0,.77.38.77,1.14a8.73,8.73,0,0,1-.29,2c-.2.79-.44,1.64-.74,2.54s-.64,1.85-1,2.82-.72,1.92-1.08,2.83-.7,1.75-1,2.54-.56,1.44-.72,2c-.37,1.12-.82,2.49-1.36,4.09l-1.73,5.15q-.93,2.75-1.86,5.55C154.74,154,154.17,155.76,153.64,157.36Zm46.52,8.54a20.05,20.05,0,0,1-1.37,4.54,11.67,11.67,0,0,1-2,3.11,3.26,3.26,0,0,1-2.36,1.23,4.49,4.49,0,0,1-4-2.16,7.37,7.37,0,0,1-.89-2.31,13.34,13.34,0,0,1-.29-2.82,22.66,22.66,0,0,1,.57-5.32,19.6,19.6,0,0,1,1.58-4.31,11.53,11.53,0,0,1,2.32-3.2,4,4,0,0,1,2.79-1.25,3,3,0,0,1,1.89.61,4.47,4.47,0,0,1,1.29,1.64,9.69,9.69,0,0,1,.75,2.45,17.2,17.2,0,0,1,.25,3A24.68,24.68,0,0,1,200.16,165.9Zm56.5,4.44a12.46,12.46,0,0,1-1,1.22,9.75,9.75,0,0,1-1.09,1.05,5.8,5.8,0,0,1-1.2.74,3.05,3.05,0,0,1-1.27.29,6.38,6.38,0,0,1-2-.28,3.07,3.07,0,0,1-1.21-.73,2.27,2.27,0,0,1-.59-1,3.87,3.87,0,0,1-.16-1.11,14.66,14.66,0,0,1,.64-4,56.34,56.34,0,0,1,1.88-5.33,14.13,14.13,0,0,1,7.27-8,2.49,2.49,0,0,1,.07.72c0,.5,0,1.15.05,2s0,1.67.06,2.63.05,2.19.07,3.69.06,2.62.11,3.35a13.16,13.16,0,0,0,.18,1.61A21.71,21.71,0,0,1,256.66,170.34Zm10-15.33v-1.92c0-.68,0-1.47,0-2.37s.07-1.91.14-3,.15-2.24.25-3.42q.07-.87.27-2.94c.12-1.37.29-2.92.5-4.63a41,41,0,0,1,1-5.26c.45-1.79.87-3.44,1.25-5a12.33,12.33,0,0,1,1.52-3.73,2.62,2.62,0,0,1,2.11-1.45,1.09,1.09,0,0,1,1,.75,7.26,7.26,0,0,1,.34,2.69c0,1-.07,2.3-.22,4a33.48,33.48,0,0,1-.65,4c-.31,1.41-.69,2.83-1.13,4.26s-.9,2.88-1.35,4.34-.92,2.86-1.38,4.2Q268.61,150.24,266.62,155Z" transform="translate(-6.36 -88.46)" style="fill:none;stroke:#231f20;stroke-miterlimit:10;stroke-width:2px"/></g><path d="M276.82,165.15q-2.15,1.84-4.11,3.28c-.57.41-1.16.81-1.77,1.21a18.77,18.77,0,0,1-1.8,1.06,12,12,0,0,1-1.7.74,4.65,4.65,0,0,1-1.48.27,1.66,1.66,0,0,1-1.17-.43,3.08,3.08,0,0,1-.75-1.18,7.67,7.67,0,0,1-.4-1.68,15.65,15.65,0,0,1-.12-2,14.55,14.55,0,0,1,.11-1.71c.08-.59.17-1.17.28-1.74s.23-1.09.36-1.57a11,11,0,0,1,.37-1.23q.86-2.31,4-8.78a70.74,70.74,0,0,0,3.49-8.55q1.45-4.32,2.93-8.74a31.84,31.84,0,0,0,1.59-9.55c0-.89,0-1.77,0-2.62a24.21,24.21,0,0,0-.32-4,11.91,11.91,0,0,0-1.06-3.37,6.48,6.48,0,0,0-1.91-2.33,4.69,4.69,0,0,0-2.86-.87,8.06,8.06,0,0,0-4.46,1.41,16.71,16.71,0,0,0-4.06,3.91,32.22,32.22,0,0,0-3.5,5.93,40.67,40.67,0,0,0-2.61,7.51l-1.9,7.61a38.11,38.11,0,0,0-1,8.18,17.27,17.27,0,0,0-5.11,1.27,17.53,17.53,0,0,0-4.67,3,17.2,17.2,0,0,0-3.64,4.43c-.92,1.62-1.75,3.18-2.5,4.66a20.41,20.41,0,0,0-.9,2,7.91,7.91,0,0,1-2.3.36,2.66,2.66,0,0,1-1.09-.22,2.21,2.21,0,0,1-.93-.73,3.72,3.72,0,0,1-.66-1.37,7.74,7.74,0,0,1-.25-2.15,12.24,12.24,0,0,1,.17-1.88c.12-.75.31-1.7.58-2.87s.45-2.12.57-2.84a11.28,11.28,0,0,0,.18-1.7,3.35,3.35,0,0,0-.29-1.41,3.18,3.18,0,0,0-.77-1.06,3.68,3.68,0,0,0-1.12-.66,4,4,0,0,0-1.33-.23,5.88,5.88,0,0,0-3.46,1,12.39,12.39,0,0,0-2.68,2.59,20.93,20.93,0,0,0-2.26,3.86c-.71,1.55-1.31,2.8-1.78,3.76h-.4a40.28,40.28,0,0,1,.11-4.26q.18-2.43.18-3.75c0-.74,0-1.32,0-1.75a1.89,1.89,0,0,0-.31-1,1.12,1.12,0,0,0-.77-.43,11.09,11.09,0,0,0-2.82,0,2.16,2.16,0,0,0-.93.36,2.35,2.35,0,0,0-.66.73,7.16,7.16,0,0,0-.57,1.25,26.22,26.22,0,0,0-.93,3c-.26,1-.57,2.28-.91,3.74l-.43-.52a23.62,23.62,0,0,0-4.83-4.45,24,24,0,0,0-5.55-2.82,18.72,18.72,0,0,0-6.37-1.06,17,17,0,0,0-7.15,1.45,15.49,15.49,0,0,0-5.37,4,17.48,17.48,0,0,0-3.38,5.93,24.82,24.82,0,0,0-1.18,8.13c0,.13,0,.25,0,.38-.23.26-.47.55-.72.86l-1.59,2c-.56.68-1.15,1.35-1.75,2a25.07,25.07,0,0,1-1.81,1.78,10.85,10.85,0,0,1-1.73,1.3,3.2,3.2,0,0,1-1.56.49,2.84,2.84,0,0,1-2-.57,2.43,2.43,0,0,1-.62-1.87,7.27,7.27,0,0,1,.71-3.06,21.76,21.76,0,0,1,1.79-3.07c.72-1,1.49-2.06,2.32-3.08s1.61-2,2.33-3.05a25.08,25.08,0,0,0,2.05-3.58,8.48,8.48,0,0,0,1-3.55,9.22,9.22,0,0,0-.4-2.77,6.86,6.86,0,0,0-1.07-2.11,4.71,4.71,0,0,0-1.59-1.34,4.06,4.06,0,0,0-1.91-.47,10.71,10.71,0,0,0-3.58.56,10.39,10.39,0,0,0-2.71,1.36,16.35,16.35,0,0,0-2.75,2.41c-1.18,1.32-1.81,2.31-2.81,3.61s-1.54,2.22-2.42,3.44-1.07,1.56-2.21,3.18l1.55-3.05s1-2,1.31-2.69c.12-.28.82-1.89,1.1-2.47.62-1.26,1.29-2.81,2.15-4.61s1.75-3.81,2.68-6,1.79-4.53,2.58-6.89a69.56,69.56,0,0,0,1.94-7.07,30.56,30.56,0,0,0,.77-6.58,16.55,16.55,0,0,0-.28-3.17,6.81,6.81,0,0,0-1-2.51,4.8,4.8,0,0,0-1.87-1.64,6.77,6.77,0,0,0-3-.58,9.68,9.68,0,0,0-4.3,1,13.26,13.26,0,0,0-3.61,2.62,19.61,19.61,0,0,0-3,3.87,40.6,40.6,0,0,0-2.38,4.65,39.2,39.2,0,0,0-1.78,5l-1.39,5c-.44,1.58-.79,3.08-1,4.48l-.66,3.54q-.67,4.21-1.16,8.68c-.32,3-.57,5.83-.77,8.56s-.33,5.22-.42,7.5-.15,4.1-.15,5.48c0,1.06,0,2,.13,3a7.66,7.66,0,0,0,.59,2.45,3.92,3.92,0,0,0,1.36,1.69,4.2,4.2,0,0,0,2.43.62,3.76,3.76,0,0,0,2-.53,6,6,0,0,0,1.71-1.84l10.51-18.35a10.32,10.32,0,0,1,2.11-2.81,2.82,2.82,0,0,1,1.57-.8.84.84,0,0,1,.77.48,2.44,2.44,0,0,1,.27,1.23,1.43,1.43,0,0,1-.22.77,4.55,4.55,0,0,1-.6.78l-.93.95c-.36.35-.75.74-1.18,1.18a31.74,31.74,0,0,0-2.61,3.94,24.91,24.91,0,0,0-1.56,3.37,15.24,15.24,0,0,0-.75,2.74,13.4,13.4,0,0,0-.19,2.06,9.11,9.11,0,0,0,.34,2.51,5,5,0,0,0,1.27,2.19,6.54,6.54,0,0,0,2.55,1.55,12.91,12.91,0,0,0,4.2.58,16.61,16.61,0,0,0,4.09-.54,21.6,21.6,0,0,0,7.79-3.72,14.74,14.74,0,0,0,2.08-1.9,12.71,12.71,0,0,0,.69,1.19,11.41,11.41,0,0,0,3.66,3.59,10.06,10.06,0,0,0,5.38,1.38,11.2,11.2,0,0,0,4.11-.75,13.54,13.54,0,0,0,3.56-2,15.54,15.54,0,0,0,2.9-3,20.1,20.1,0,0,0,2.14-3.75,22.09,22.09,0,0,0,1.34-4.15,20,20,0,0,0,.46-4.25,24.18,24.18,0,0,0-.51-5.2,19.34,19.34,0,0,0-1.56-4.38l.29-.39c.85.57,1.88,1.28,3.07,2.13a28.75,28.75,0,0,1,3.63,3.09c.65.64,1.28,1.26,1.9,1.84,0,.2-.08.41-.11.61-.28,1.6-.52,3.18-.72,4.73s-.36,3-.48,4.42-.18,2.61-.18,3.66a22.79,22.79,0,0,0,.16,2.77,7.84,7.84,0,0,0,.65,2.39,3.74,3.74,0,0,0,3.73,2.31,3,3,0,0,0,1.18-.23,2.76,2.76,0,0,0,1-.81,7.77,7.77,0,0,0,.91-1.48,24.35,24.35,0,0,0,.95-2.31l6.4-17.83h.57c.19,1.5.44,3,.75,4.45a14.71,14.71,0,0,0,1.43,4,7.86,7.86,0,0,0,2.61,2.85,7.66,7.66,0,0,0,4.32,1.09,9.58,9.58,0,0,0,2.07-.22,16.15,16.15,0,0,0,.52,3.34A11.57,11.57,0,0,0,237,176.5a8.7,8.7,0,0,0,2.83,2.57,7.93,7.93,0,0,0,4,1,10.13,10.13,0,0,0,3.28-.55,19.26,19.26,0,0,0,3.23-1.46,21.37,21.37,0,0,0,3.08-2.15,33,33,0,0,0,2.81-2.6,11.88,11.88,0,0,0,2.07,3.53,9.8,9.8,0,0,0,2.38,2,7.62,7.62,0,0,0,2.19.93,7,7,0,0,0,1.52.23,6.42,6.42,0,0,0,1.92-.32,17.15,17.15,0,0,0,2.15-.83c.74-.35,1.49-.74,2.25-1.18s1.49-.89,2.18-1.35a61.5,61.5,0,0,0,5-3.72Zm-128-9.4c.21-2.9.5-5.86.85-8.86.19-1.22.38-2.52.6-3.91s.42-2.81.64-4.25.51-2.9.87-4.37.7-2.89,1-4.28c.63-1.54,1.19-3,1.69-4.21a25,25,0,0,1,1.49-3.2,7.36,7.36,0,0,1,1.57-2,3,3,0,0,1,2-.72c.5,0,.76.38.76,1.15a8.88,8.88,0,0,1-.29,2c-.19.78-.44,1.63-.74,2.54s-.63,1.84-1,2.82-.73,1.92-1.09,2.82-.7,1.75-1,2.54-.55,1.44-.72,2c-.36,1.12-.81,2.48-1.36,4.09s-1.12,3.32-1.73,5.15l-1.86,5.55C149.92,152.42,149.35,154.16,148.83,155.75Zm46.51,8.54a20.05,20.05,0,0,1-1.37,4.54,11.66,11.66,0,0,1-2,3.11,3.26,3.26,0,0,1-2.36,1.24,4.69,4.69,0,0,1-2.4-.59A4.77,4.77,0,0,1,185.6,171a7.31,7.31,0,0,1-.89-2.3,13.35,13.35,0,0,1-.28-2.82,22.75,22.75,0,0,1,.57-5.33,19.28,19.28,0,0,1,1.57-4.31,11.89,11.89,0,0,1,2.32-3.2,4,4,0,0,1,2.79-1.25,3,3,0,0,1,1.89.61,4.45,4.45,0,0,1,1.29,1.64,9.42,9.42,0,0,1,.75,2.45,17.23,17.23,0,0,1,.25,3.06A24.67,24.67,0,0,1,195.34,164.29Zm56.5,4.45a12.13,12.13,0,0,1-1,1.22,8.83,8.83,0,0,1-1.09,1,5.45,5.45,0,0,1-1.2.75,3,3,0,0,1-1.27.28,6.15,6.15,0,0,1-2-.28,3.06,3.06,0,0,1-1.21-.72,2.43,2.43,0,0,1-.59-1,3.94,3.94,0,0,1-.16-1.12,14.71,14.71,0,0,1,.64-4c.43-1.49,1.06-3.26,1.88-5.33a14.88,14.88,0,0,1,3.07-5,15.17,15.17,0,0,1,4.2-3,2.49,2.49,0,0,1,.07.72c0,.51,0,1.16.06,1.95s0,1.67.05,2.63,0,2.19.07,3.69.06,2.62.11,3.36a13.19,13.19,0,0,0,.18,1.6A21,21,0,0,1,251.84,168.74Zm10-15.34v-1.92c0-.67,0-1.46,0-2.37s.07-1.91.13-3,.15-2.23.26-3.42c.05-.58.14-1.56.26-2.93s.29-2.92.5-4.64a43.08,43.08,0,0,1,1-5.25c.44-1.79.86-3.45,1.24-5a12.37,12.37,0,0,1,1.52-3.73,2.62,2.62,0,0,1,2.11-1.45,1.08,1.08,0,0,1,1,.75,7.12,7.12,0,0,1,.35,2.68c0,1-.08,2.3-.23,4a33.63,33.63,0,0,1-.65,4c-.31,1.4-.68,2.82-1.13,4.26s-.9,2.88-1.35,4.34-.92,2.85-1.38,4.2Q263.79,148.64,261.81,153.4Z" transform="translate(-6.36 -88.46)" style="fill:url(#linear-gradient-2)"/><path d="M276.82,165.15q-2.15,1.84-4.11,3.28c-.57.41-1.16.81-1.77,1.21a18.77,18.77,0,0,1-1.8,1.06,12,12,0,0,1-1.7.74,4.65,4.65,0,0,1-1.48.27,1.66,1.66,0,0,1-1.17-.43,3.08,3.08,0,0,1-.75-1.18,7.67,7.67,0,0,1-.4-1.68,15.65,15.65,0,0,1-.12-2,14.55,14.55,0,0,1,.11-1.71c.08-.59.17-1.17.28-1.74s.23-1.09.36-1.57a11,11,0,0,1,.37-1.23q.86-2.31,4-8.78a70.74,70.74,0,0,0,3.49-8.55q1.45-4.32,2.93-8.74a31.84,31.84,0,0,0,1.59-9.55c0-.89,0-1.77,0-2.62a24.21,24.21,0,0,0-.32-4,11.91,11.91,0,0,0-1.06-3.37,6.48,6.48,0,0,0-1.91-2.33,4.69,4.69,0,0,0-2.86-.87,8.06,8.06,0,0,0-4.46,1.41,16.71,16.71,0,0,0-4.06,3.91,32.22,32.22,0,0,0-3.5,5.93,40.67,40.67,0,0,0-2.61,7.51l-1.9,7.61a38.11,38.11,0,0,0-1,8.18,17.27,17.27,0,0,0-5.11,1.27,17.53,17.53,0,0,0-4.67,3,17.2,17.2,0,0,0-3.64,4.43c-.92,1.62-1.75,3.18-2.5,4.66a20.41,20.41,0,0,0-.9,2,7.91,7.91,0,0,1-2.3.36,2.66,2.66,0,0,1-1.09-.22,2.21,2.21,0,0,1-.93-.73,3.72,3.72,0,0,1-.66-1.37,7.74,7.74,0,0,1-.25-2.15,12.24,12.24,0,0,1,.17-1.88c.12-.75.31-1.7.58-2.87s.45-2.12.57-2.84a11.28,11.28,0,0,0,.18-1.7,3.35,3.35,0,0,0-.29-1.41,3.18,3.18,0,0,0-.77-1.06,3.68,3.68,0,0,0-1.12-.66,4,4,0,0,0-1.33-.23,5.88,5.88,0,0,0-3.46,1,12.39,12.39,0,0,0-2.68,2.59,20.93,20.93,0,0,0-2.26,3.86c-.71,1.55-1.31,2.8-1.78,3.76h-.4a40.28,40.28,0,0,1,.11-4.26q.18-2.43.18-3.75c0-.74,0-1.32,0-1.75a1.89,1.89,0,0,0-.31-1,1.12,1.12,0,0,0-.77-.43,11.09,11.09,0,0,0-2.82,0,2.16,2.16,0,0,0-.93.36,2.35,2.35,0,0,0-.66.73,7.16,7.16,0,0,0-.57,1.25,26.22,26.22,0,0,0-.93,3c-.26,1-.57,2.28-.91,3.74l-.43-.52a23.62,23.62,0,0,0-4.83-4.45,24,24,0,0,0-5.55-2.82,18.72,18.72,0,0,0-6.37-1.06,17,17,0,0,0-7.15,1.45,15.49,15.49,0,0,0-5.37,4,17.48,17.48,0,0,0-3.38,5.93,24.82,24.82,0,0,0-1.18,8.13c0,.13,0,.25,0,.38-.23.26-.47.55-.72.86l-1.59,2c-.56.68-1.15,1.35-1.75,2a25.07,25.07,0,0,1-1.81,1.78,10.85,10.85,0,0,1-1.73,1.3,3.2,3.2,0,0,1-1.56.49,2.84,2.84,0,0,1-2-.57,2.43,2.43,0,0,1-.62-1.87,7.27,7.27,0,0,1,.71-3.06,21.76,21.76,0,0,1,1.79-3.07c.72-1,1.49-2.06,2.32-3.08s1.61-2,2.33-3.05a25.08,25.08,0,0,0,2.05-3.58,8.48,8.48,0,0,0,1-3.55,9.22,9.22,0,0,0-.4-2.77,6.86,6.86,0,0,0-1.07-2.11,4.71,4.71,0,0,0-1.59-1.34,4.06,4.06,0,0,0-1.91-.47,10.71,10.71,0,0,0-3.58.56,10.39,10.39,0,0,0-2.71,1.36,16.35,16.35,0,0,0-2.75,2.41c-1.18,1.32-1.81,2.31-2.81,3.61s-1.54,2.22-2.42,3.44-1.07,1.56-2.21,3.18l1.55-3.05s1-2,1.31-2.69c.12-.28.82-1.89,1.1-2.47.62-1.26,1.29-2.81,2.15-4.61s1.75-3.81,2.68-6,1.79-4.53,2.58-6.89a69.56,69.56,0,0,0,1.94-7.07,30.56,30.56,0,0,0,.77-6.58,16.55,16.55,0,0,0-.28-3.17,6.81,6.81,0,0,0-1-2.51,4.8,4.8,0,0,0-1.87-1.64,6.77,6.77,0,0,0-3-.58,9.68,9.68,0,0,0-4.3,1,13.26,13.26,0,0,0-3.61,2.62,19.61,19.61,0,0,0-3,3.87,40.6,40.6,0,0,0-2.38,4.65,39.2,39.2,0,0,0-1.78,5l-1.39,5c-.44,1.58-.79,3.08-1,4.48l-.66,3.54q-.67,4.21-1.16,8.68c-.32,3-.57,5.83-.77,8.56s-.33,5.22-.42,7.5-.15,4.1-.15,5.48c0,1.06,0,2,.13,3a7.66,7.66,0,0,0,.59,2.45,3.92,3.92,0,0,0,1.36,1.69,4.2,4.2,0,0,0,2.43.62,3.76,3.76,0,0,0,2-.53,6,6,0,0,0,1.71-1.84l10.51-18.35a10.32,10.32,0,0,1,2.11-2.81,2.82,2.82,0,0,1,1.57-.8.84.84,0,0,1,.77.48,2.44,2.44,0,0,1,.27,1.23,1.43,1.43,0,0,1-.22.77,4.55,4.55,0,0,1-.6.78l-.93.95c-.36.35-.75.74-1.18,1.18a31.74,31.74,0,0,0-2.61,3.94,24.91,24.91,0,0,0-1.56,3.37,15.24,15.24,0,0,0-.75,2.74,13.4,13.4,0,0,0-.19,2.06,9.11,9.11,0,0,0,.34,2.51,5,5,0,0,0,1.27,2.19,6.54,6.54,0,0,0,2.55,1.55,12.91,12.91,0,0,0,4.2.58,16.61,16.61,0,0,0,4.09-.54,21.6,21.6,0,0,0,7.79-3.72,14.74,14.74,0,0,0,2.08-1.9,12.71,12.71,0,0,0,.69,1.19,11.41,11.41,0,0,0,3.66,3.59,10.06,10.06,0,0,0,5.38,1.38,11.2,11.2,0,0,0,4.11-.75,13.54,13.54,0,0,0,3.56-2,15.54,15.54,0,0,0,2.9-3,20.1,20.1,0,0,0,2.14-3.75,22.09,22.09,0,0,0,1.34-4.15,20,20,0,0,0,.46-4.25,24.18,24.18,0,0,0-.51-5.2,19.34,19.34,0,0,0-1.56-4.38l.29-.39c.85.57,1.88,1.28,3.07,2.13a28.75,28.75,0,0,1,3.63,3.09c.65.64,1.28,1.26,1.9,1.84,0,.2-.08.41-.11.61-.28,1.6-.52,3.18-.72,4.73s-.36,3-.48,4.42-.18,2.61-.18,3.66a22.79,22.79,0,0,0,.16,2.77,7.84,7.84,0,0,0,.65,2.39,3.74,3.74,0,0,0,3.73,2.31,3,3,0,0,0,1.18-.23,2.76,2.76,0,0,0,1-.81,7.77,7.77,0,0,0,.91-1.48,24.35,24.35,0,0,0,.95-2.31l6.4-17.83h.57c.19,1.5.44,3,.75,4.45a14.71,14.71,0,0,0,1.43,4,7.86,7.86,0,0,0,2.61,2.85,7.66,7.66,0,0,0,4.32,1.09,9.58,9.58,0,0,0,2.07-.22,16.15,16.15,0,0,0,.52,3.34A11.57,11.57,0,0,0,237,176.5a8.7,8.7,0,0,0,2.83,2.57,7.93,7.93,0,0,0,4,1,10.13,10.13,0,0,0,3.28-.55,19.26,19.26,0,0,0,3.23-1.46,21.37,21.37,0,0,0,3.08-2.15,33,33,0,0,0,2.81-2.6,11.88,11.88,0,0,0,2.07,3.53,9.8,9.8,0,0,0,2.38,2,7.62,7.62,0,0,0,2.19.93,7,7,0,0,0,1.52.23,6.42,6.42,0,0,0,1.92-.32,17.15,17.15,0,0,0,2.15-.83c.74-.35,1.49-.74,2.25-1.18s1.49-.89,2.18-1.35a61.5,61.5,0,0,0,5-3.72Zm-128-9.4c.21-2.9.5-5.86.85-8.86.19-1.22.38-2.52.6-3.91s.42-2.81.64-4.25.51-2.9.87-4.37.7-2.89,1-4.28c.63-1.54,1.19-3,1.69-4.21a25,25,0,0,1,1.49-3.2,7.36,7.36,0,0,1,1.57-2,3,3,0,0,1,2-.72c.5,0,.76.38.76,1.15a8.88,8.88,0,0,1-.29,2c-.19.78-.44,1.63-.74,2.54s-.63,1.84-1,2.82-.73,1.92-1.09,2.82-.7,1.75-1,2.54-.55,1.44-.72,2c-.36,1.12-.81,2.48-1.36,4.09s-1.12,3.32-1.73,5.15l-1.86,5.55C149.92,152.42,149.35,154.16,148.83,155.75Zm46.51,8.54a20.05,20.05,0,0,1-1.37,4.54,11.66,11.66,0,0,1-2,3.11,3.26,3.26,0,0,1-2.36,1.24,4.69,4.69,0,0,1-2.4-.59A4.77,4.77,0,0,1,185.6,171a7.31,7.31,0,0,1-.89-2.3,13.35,13.35,0,0,1-.28-2.82,22.75,22.75,0,0,1,.57-5.33,19.28,19.28,0,0,1,1.57-4.31,11.89,11.89,0,0,1,2.32-3.2,4,4,0,0,1,2.79-1.25,3,3,0,0,1,1.89.61,4.45,4.45,0,0,1,1.29,1.64,9.42,9.42,0,0,1,.75,2.45,17.23,17.23,0,0,1,.25,3.06A24.67,24.67,0,0,1,195.34,164.29Zm56.5,4.45a12.13,12.13,0,0,1-1,1.22,8.83,8.83,0,0,1-1.09,1,5.45,5.45,0,0,1-1.2.75,3,3,0,0,1-1.27.28,6.15,6.15,0,0,1-2-.28,3.06,3.06,0,0,1-1.21-.72,2.43,2.43,0,0,1-.59-1,3.94,3.94,0,0,1-.16-1.12,14.71,14.71,0,0,1,.64-4c.43-1.49,1.06-3.26,1.88-5.33a14.88,14.88,0,0,1,3.07-5,15.17,15.17,0,0,1,4.2-3,2.49,2.49,0,0,1,.07.72c0,.51,0,1.16.06,1.95s0,1.67.05,2.63,0,2.19.07,3.69.06,2.62.11,3.36a13.19,13.19,0,0,0,.18,1.6A21,21,0,0,1,251.84,168.74Zm10-15.34v-1.92c0-.67,0-1.46,0-2.37s.07-1.91.13-3,.15-2.23.26-3.42c.05-.58.14-1.56.26-2.93s.29-2.92.5-4.64a43.08,43.08,0,0,1,1-5.25c.44-1.79.86-3.45,1.24-5a12.37,12.37,0,0,1,1.52-3.73,2.62,2.62,0,0,1,2.11-1.45,1.08,1.08,0,0,1,1,.75,7.12,7.12,0,0,1,.35,2.68c0,1-.08,2.3-.23,4a33.63,33.63,0,0,1-.65,4c-.31,1.4-.68,2.82-1.13,4.26s-.9,2.88-1.35,4.34-.92,2.85-1.38,4.2Q263.79,148.64,261.81,153.4Z" transform="translate(-6.36 -88.46)" style="fill:none;stroke:#231f20;stroke-miterlimit:10;stroke-width:2px"/></g></g></svg>