<svg id="Layer_1" data-name="Layer 1" xmlns="http://www.w3.org/2000/svg" viewBox="0 0 186.935 186.935"><title>circle</title><path d="M109.068,62.853c1.27,0,2.536.007,3.8.017,2.227.017,4.53.033,6.792-.017,3.31-.073,3.9-.918,3.933-5.649.012-1.735-.047-3.239-.9-4.08a3.829,3.829,0,0,0-2.886-.8c-4.493.106-9.059.072-13.475.04-2.463-.019-4.925-.038-7.388-.032-5.041.01-6.275,1.245-6.29,6.294q-.041,13.563-.07,27.129l-.03,14.95-1.888-.171c-.922-.081-1.7-.149-2.468-.233a20.939,20.939,0,0,0-2.272-.122c-10.8,0-22.265,8.032-25.343,18.182-2.294,7.569.228,13.715,7.1,17.307,4.1,2.143,8.6,2.623,14.161,1.5,10.105-2.03,20.605-11.963,20.685-25.071.055-9.186.035-17.642.017-25.82-.013-5.541-.026-11.095-.017-16.931C102.539,64.379,104.066,62.862,109.068,62.853Z" transform="translate(-2.532 -2.011)" fill="#fccd38"/><path d="M96.1,2.011a93.468,93.468,0,1,0,93.371,93.565A93.469,93.469,0,0,0,96.1,2.011Zm31.662,64.11-1.573.015c-2.853.028-5.8.057-8.7-.045a3.359,3.359,0,0,0-2.515.652,3.255,3.255,0,0,0-.727,2.42q.006,7.177-.028,14.354c-.028,8.306-.058,16.9.022,25.34l.01,1.011,0,0,.007,1.035c.006.459.042.918.091,1.378-.024,4.308-.6,10.306-3.184,14.676-.192.31-.383.609-.58.905l-.345-.227h0l.268.315c-.968.98-9.737,9.627-19.594,11.775-5.057,1.1-8.71,1.836-13.1,1.836a47.147,47.147,0,0,1-5.455-.339,23.854,23.854,0,0,1-7.837-3.01l-1.192-.761H63.6a17.365,17.365,0,0,1-6.52-9.957,19.1,19.1,0,0,1,.788-9.973l.187-.452c.116-.283.233-.567.356-.837,5.946-13.062,15.284-18.9,30.282-18.931.166,0,.32.01.667.033l.1.007.009-.123c.074-1.028.166-2.308.171-3.338q.043-10.042.066-20.085.023-7.646.048-15.29c.013-3.41.685-5.657,2.116-7.072,1.408-1.393,3.619-2.044,6.95-2.044h.118q5.844.027,11.688.033c5.773.011,11.548.021,17.32.067,5.92.047,7.356,1.8,7.312,8.911C135.227,64.125,133.333,66.074,127.759,66.121Z" transform="translate(-2.532 -2.011)" fill="#fccd38"/></svg>