<svg id="Layer_1" data-name="Layer 1" xmlns="http://www.w3.org/2000/svg" viewBox="0 0 176 124"><title>youtube-icon-full-color</title><path d="M180.322,53.363A22.113,22.113,0,0,0,164.762,37.7C151.037,34,96,34,96,34s-55.037,0-68.762,3.7a22.113,22.113,0,0,0-15.56,15.661C8,67.177,8,96,8,96s0,28.823,3.678,42.637A22.113,22.113,0,0,0,27.238,154.3C40.963,158,96,158,96,158s55.037,0,68.762-3.7a22.113,22.113,0,0,0,15.56-15.661C184,124.823,184,96,184,96S184,67.177,180.322,53.363Z" transform="translate(-8 -34)" fill="#d42d1c"/><polygon points="70 88.169 70 35.831 116 62.001 70 88.169" fill="#fefefe"/></svg>