<svg id="Layer_1" data-name="Layer 1" xmlns="http://www.w3.org/2000/svg" viewBox="0 0 7779 4030.62"><title>kord-3d</title><path d="M139.76,3659.74c12.22,8.52,29.21-7.65,45.26-2.84C169.45,3651.63,152,3668.26,139.76,3659.74Z" transform="translate(36 83.05)"/><path d="M1336.36,3290.61l0,0,0,0Z" transform="translate(36 83.05)"/><path d="M6863.73,3232.89h0Z" transform="translate(36 83.05)"/><path d="M3295.55,2258.68h0l0,0Z" transform="translate(36 83.05)"/><polygon points="1456.12 1810.62 1456.13 1810.62 1456.14 1810.62 1456.12 1810.62"/><path d="M3644.5,3686.05l-.05,0-.08-.06Z" transform="translate(36 83.05)"/><path d="M4550.16,3047.43v0l0-.07Z" transform="translate(36 83.05)"/><path d="M3557.53,3570v0l0,0Z" transform="translate(36 83.05)"/><path d="M2006.67,2010.86h0Z" transform="translate(36 83.05)"/><path d="M4181.11,1841.63v0Z" transform="translate(36 83.05)"/><path d="M1830.63,1803.83l0,0,0,0Z" transform="translate(36 83.05)"/><path d="M5779.71,1858.4h.05Z" transform="translate(36 83.05)"/><path d="M6983,1041.1h0v0Z" transform="translate(36 83.05)"/><path d="M2811,2259.85c-19.35-40.08-45-73.09-76.83-97.74-33-25.72-73.6-38.37-118.1-38.24-60.28-.13-117.52,26.14-168.2,74.54q-75.16,71.15-130.46,179.42-55.41,108-86.91,237.75-31.74,130.8-31.54,293.16,0,83.25,15.94,157.63v.05c10.86,49.87,27.81,94.12,51.53,132.47a274.5,274.5,0,0,0,95.6,93.35c40.58,24.05,88.68,35.59,142.36,35.55,53,.05,102.42-27.27,146.34-74.92,43.35-46.71,80.66-105,112.39-174.37,31.93-69.81,57.07-153.2,76-250.52h0c18.87-96.86,28.42-183.39,28.43-260.09q0-90.7-13.91-169.14C2844.45,2346.1,2830.34,2299.77,2811,2259.85ZM2752.73,2818c-18.32,94.29-21.52,139.85-51.21,204.74-29.89,65.34-58.42,118.81-97.16,160.53l0,0c-38.37,41.19-73.67,58.09-107.9,58.14-34.7,0-64.73-5.48-90.74-16q-5-16.59-8.86-34.37c-10.26-47.48-7.4-64.16-7.4-118.13q0-159.75,30.84-286.86t84.73-232q53.82-105,125.14-172.34c46.57-44.13,60.64-66.56,112.18-67.4,10.32,27.55,18.64,58.71,24.75,93.52v.07q13,73.23,13.1,160,0,108.51-27.46,250.06l60.72,5Z" transform="translate(36 83.05)"/><path d="M2853.68,2398.71v0Z" transform="translate(36 83.05)"/><path d="M2447.9,2198.43v0l0,0Z" transform="translate(36 83.05)"/><path d="M6129.68,2796.77v-.13c-2.61-38.67-4.66-98.6-5.88-179.2v-.06q-2.15-121.32-3.89-199.14-1.84-77.64-3.07-141.75v.12c-.62-42.63-1.43-77.8-2.89-105.65l-1.84-30.33-1.19-9.62-1.57-6.05-3.6-6.89-21.5-11.07-10.82,4.54-.88-1.79a839.36,839.36,0,0,0-233.66,169.44l0,0c-68.85,71-125.74,163.73-171.13,277.31l0,0Q5601,2724.49,5566,2846.42c-23.64,82-35.82,156.81-35.83,224.66a238.64,238.64,0,0,0,9.83,67.66c6.93,24.33,20,46.25,37.9,65l.09.09,0,0c19.08,19.8,44.67,34.62,75.63,45.63,32.32,11.43,71.48,16.63,118.49,16.66,27,0,53.68-6.06,79.22-17.7,24.71-11.23,48-25.93,70.12-43.44l0,0,.17-.14a532.43,532.43,0,0,0,61.8-59.4l.1-.11a646.86,646.86,0,0,0,52.93-68.22h0q55.56-80.82,100.59-181.63l3.49-7.81-1.79-8.36C6135.37,2863.53,6132.06,2835.56,6129.68,2796.77Zm-216.35,301.81c-18,20.13-3.38,9.92-22.57,25.47-19.21,15.2-38.86,21.49-59.14,30.71-19.49,8.84-35.28,9-54.53,9-18.76,0-7.75-.94-22.94-2.73,2.5-58.4,13.88-100.78,34.19-171.14,23.1-80.19,23.78-72,68.05-183.34s74.52-201,140.6-268.89c14.61-15,29.86-29.14,45.5-42.7,0,.17,0,.34,0,.51,1.23,51.68,2.46,42,3.89,122.83v-.07c1.23,81.07,3.27,141.49,6,181.84,2.19,34.87,4.92,61.55,8.46,81.49-28,61.63-64.89,104.91-98.55,153.86l-.07.11-.11.16A595.82,595.82,0,0,1,5913.33,3098.58Z" transform="translate(36 83.05)"/><path d="M5540,3138.91c0-.06,0-.12-.05-.17a.64.64,0,0,0,0-.07Z" transform="translate(36 83.05)"/><path d="M2230.54,2615.58h0v0Z" transform="translate(36 83.05)"/><path d="M6113.93,2170.8s0,.11,0,.16v-.16Z" transform="translate(36 83.05)"/><path d="M2362.1,3292.25h0l-.08,0Z" transform="translate(36 83.05)"/><path d="M1095.15,608v.08Z" transform="translate(36 83.05)"/><path d="M6525.65,2236.25V2367L6576,2246.35q107.45-257.2,197.86-512.41l0-.14q37.94-108.85,74.59-227.16v.06q36.85-117.83,72.88-233.81l0-.05Q6957.63,1156,6983,1041.11q25.47-115.11,35.49-219l0-.19c8-90.32,12.17-162.11,12.18-216-.26-71.21-5.76-121.09-21-155.41l0-.08,0,0c-13.8-32.37-42.91-56.52-77.62-55.74-53.78,0-99.56,34.32-135.54,89.84v0c-36.11,55.3-64.18,125-85.18,209.13l0-.12Q6680,816.75,6643.94,961.27q-36.6,146.07-53.82,286.31v.06q-16.6,138.91-26.89,250.49-10.14,111.34-14.33,158.13v.13c-5.54,63.88-10.27,125.5-13.56,185-3.71,59.58-6,113.81-7.41,162.87q-2.16,73.32-2.26,128.61v103.38Z" transform="translate(36 83.05)"/><path d="M1054.65,746.8h0l0,.06Z" transform="translate(36 83.05)"/><path d="M919.78,451l0,0,0,0Z" transform="translate(36 83.05)"/><path d="M776.39,1514.32v0q43.8-130.15,73.08-220.76v0l0-.06c8.71-27.34,21.52-62.18,38.27-104.08v0q25.34-63.72,54.44-136.72h0q29.29-73.56,58.67-152.8l0,0q29.15-79.08,53.72-152.92t40.49-138.73c10.77-43.69,16.29-81.46,16.31-114-.13-23.3-3.41-43.46-14.63-60.69-11-17.58-32.58-27.67-52.61-27-46.93-.18-89.91,14.9-124.41,44.67-33.12,28.3-63.06,67.21-90.85,116.47-27.51,48.8-54.56,107.36-81.6,176q-40,101.61-90.78,226.22l-.73,1.8-.46,1.89q-27.33,112.22-56.4,230.9-29.28,119.93-47.12,237.29-17.67,116.4-34.7,228.89-17.05,112.69-31.84,210.89l-.06.39-.05.39q-29.08,243.31-46.38,478.68l-15.76,213.38L489.86,2371q42.36-128.92,92.89-280.33,50.52-151.21,100.2-298.85Q732.54,1644.38,776.39,1514.32Zm117.17-481.16q-29.19,73.11-54.47,136.78l0,0c-.31.78-.62,1.54-.92,2.32q3.46-14.22,6.93-28.33,50.76-124.74,90.82-226.55,12.15-30.87,24.29-58.91Q956,870,951.76,881.6,922.54,960.37,893.56,1033.16Z" transform="translate(36 83.05)"/><path d="M2650.79,3252.86h0Z" transform="translate(36 83.05)"/><path d="M7663.26,2977.46c-34.72,29.73-168.61,87.67-201.95,114.39l-48.06-360.45-36.18,30.91c-76.71,65.52-187.86,150-257.8,201.33-30.6,21.68-15,9.15-47.39,30.41-32.12,20.88,9.26-5.52-22.06,10.84l-.12.06c-31.12,16.46-60.11,29.15-87.49,38.21l-.05,0a287.33,287.33,0,0,1-34,9.18c-3-28.6.49,39.49.49,8.23a737.49,737.49,0,0,1,5.93-92.47q6-47.74,15-93.5t19.09-84.69c6.65-25.9,13.31-48,20-66.16,30.71-83.08,95.17-216.83,207.28-449.16Q7306,2046.77,7384,1814.13T7541.7,1343.3q79.76-238.18,85.33-514.62,1.2-72.52,1.28-141.14a1285.74,1285.74,0,0,0-17.4-213.16c-11.55-68.81-30.47-95.28-56.78-147.32s-96.59-153-139-184.43c-6.69-5-7.67-9.43-13.16-15.63-9.15-10.33-20.26-19.81-30-29-18-17-48.86-51.16-70-66-57-40-50.46-39.55-96.38-73.68l0,0,0,0c-47.31-35-131.84-41.42-196.71-41.31-88.13-.06-189.61,48.3-270.48,101.33Q6617.49,97.38,6513,235.2q-104.57,137.3-191.65,324.48l0,0q-87.48,187.26-142.53,409.08-54.67,219.75-101.75,410.16v0c-30.84,123.58-45.4,242.76-50.36,401.56-91.43,10.7-165.3,43.26-247,78-89,37.6-175,93.39-258.43,166.56l0,0q-125.16,110.22-201.81,245.16v0c-49.5,87.7-84.73,170.79-125.29,251.27-11,21.76-19.65,43.3-28.34,64.13l-31,14.33c-55.6,23-108.59,34.94-159.72,36.19a497,497,0,0,1-2.5-50.17c0-26.95,4.17-37.63,10.62-78.13s16.65-92.07,30.8-155,24.38-113.88,30.8-153,9.62-69.69,9.62-91.51q0-42.34-15.4-76t-41.38-56.86c-17.32-15.4-34.57-24.27-57.67-32.61q-7.41-2.67-14.95-4.61c-2.48-34.1-17.4-94.07-28.37-118.05-11.62-25.48-30.74-43.63-50.73-61.47l-.05,0c-20-17.75-49.33-27.38-75.36-36.69l.09,0a233.57,233.57,0,0,0-80.18-14.16c-75.27-.1-143.53,20.5-201.77,61.58l0,0q-84.07,59.3-150.1,145.07c-13.14,17.14-25.06,38.1-36.36,61.32a73.11,73.11,0,0,0-10.24-20.59c-9-12.19-22.82-19.89-41.38-23.1s-34.44-4.79-67.39-4.81c0-35-.2-63.41-2.05-85.54-2.16-26-19.27-78.34-32.23-96.27l-3.39-4.62L4099,1714.88l-3.94-2.19-4.43-.76c-21.08-3.56-48.14-5.16-82.4-5.18-30.46,0-56.43,1.66-78.24,5.14h-.11c-22.94,3.75-68.75,41.34-86.19,54l-2.22,1.61L3804.05,1809l-1.61,1.78-1.26,2c-11.68,19-22.4,42.73-33,71.91-17.22,43.81-38.1,90.46-54.93,156.54v0c-16,62.33-20.2,86.8-40.38,175.77-25.25-39-41.21-66.95-49.28-76.65-81.62-98.07-170.11-151.63-265.34-216.68a1331.36,1331.36,0,0,0-305.38-155.25l0,0q-164.28-58.24-351.55-58.21c-145.65,0-277.94,26.63-395.93,80.35-117.36,53.4-217.26,126.88-298.67,220.35a429.44,429.44,0,0,0-33.55,44.25,264.79,264.79,0,0,0-18.86-27.93,272.49,272.49,0,0,0-48.22-48.51,445.25,445.25,0,0,0-13.26-52.94c-14.88-46.82-35.44-87.68-62.12-121.86-26.44-34.13-58.06-60.86-94.23-79.71h0a246.63,246.63,0,0,0-115.06-28.45q-109.68,0-201.22,31.88c-36.38,12.76-29.56,24.21-59.51,40.48q15.36-35.8,31-73.25,75.06-180.32,138.62-371.22a3690.52,3690.52,0,0,0,104.94-380.93q41.37-189.95,41.42-354.71c0-61.35-2.57-148.94-9.4-202.58-6.75-53-31.17-163.36-52-208.21C1603,150.87,1584.58,122,1565,100c-42-47.15-53-57-85-79-27.88-19.17-55.55-34.77-56-35-27.45-13.73-44-19-90.46-32.65-50.6-14.87-125.11-20.46-193.4-20.48C1053-67.16,945.59-32,871.28,4.44c-73.37,35.93-110.7,64.84-171.64,126.22L687.31,140l-10.66,12.66C615.83,213.78,549.46,280.05,501,361l-11,21-15,28c-44,89-48.69,88.37-87,177l-16,44c-38.46,88.84-76.58,170.9-103,266-26.1,93.86-46.26,178.86-70,264-23.93,85.94-38.92,130.7-53,207l-9,54c-13.82,75.44-27.48,110-37,162-24.44,151.75-41.65,262.07-59,423S.36,2383.88-10,2531s-11,298.05-16,421l-.35-.22C-31.58,3074.85-36,3180.1-36,3255c0,57.4,5.42,113.16,10,164,4.71,52.39,12.93,110.95,31,152,18.35,42,78.91,110.93,115,136l22,15c26.45,18.32,83.69,58,123.62,55.44,15.56,26.49,47.67,95.33,72.38,112.54,32.08,22.37,75.7,38.52,130.92,38.52q61.59,0,107.82-28.71t92.47-98.72l175.58-306.75c3.2,23.24-4.06,4.16,2.26,26.71,13.34,47.87,18.66,40,54.69,77.56l.06.06c36.87,38.21,86.45,67.92,147.71,89.8h0a458.39,458.39,0,0,0,45,13.41c5.07,6.43,34.49,44.71,40.35,50.8,33.37,34.64,109.24,103.47,167.66,124.4s133.85,31.44,226.27,31.44q105.86,0,220.46-28.79a1168.84,1168.84,0,0,0,221.46-80c69.47-33.31,110-48.35,169.73-93.1q7.59,5,15.36,9.75l-.05,0q16.93,10.47,34.78,19.5c41,47.83,95.58,80.89,150.21,114.53q120.34,74.22,289.82,74.18,117.4,0,221.42-40.42c69.33-27,160.17-79.59,218.59-125.79s110.39-100.8,156-163.68,104-145.23,135.52-217.17,58.54-171.36,75.22-248.35,25-153.41,25-229.19q0-155.91-27.91-280.13c-13.69-61-33.72-110.75-78.76-200.93l2.4,4.82c37.68,25.11-27.68-10.83,21.93,24.1q23.58,21.78,47.37,45.35c56.37,55.79,109.78,106.91,160.92,154.22-11.73,71.17-24.62,113.69-33.7,182.87v0q-16.34,125.76-26.12,239c-6.5,75.7-9.72,142.11-9.72,199.58a1286.26,1286.26,0,0,0,8.89,152.34c6,50.38,11.19,108.08,29.9,148.79,18.95,41.6,50.8,91,86.93,116.06,27.53,19.31,173.62,66.94,211.37,71.81,2.07,5.63,45.18,52.18,47.71,57.45,9.47,19.72,13,26.08,45.14,48.54s74.42,33.68,127.11,33.68q34.65,0,63.52-12.51t53.93-43.39c16.68-20.45,33-47.15,49.08-79.87s33-74.1,51-124.23l217.59-674.11a727.54,727.54,0,0,0,39.21,84c36.47,67.18,43.49,102,105.94,143.41l0,0c20.63,13.62,43.12,75,67.41,84.1C4769,3312,4792,3331,4851.86,3359.16c64.12,30.17,123.73,51.79,220,51.79,8.71,0,17.37-.55,26-1.3q1.48,5.82,3.05,11.62c20.56,75.92,29.95,38.16,72.33,98.5,42.44,60.58,111.3,162.66,175.56,199.3h0a385.67,385.67,0,0,0,36.37,18.22c38.44,50.53,146.37,110.58,201.78,142.15,60.95,34.73,133.21,43.05,216.69,43.05q88.78,0,176.67-29.67t173.87-78.67a1163.87,1163.87,0,0,0,166.08-115.57c7.49-6.21,34.73-28.63,91.25-83.38,40.18,42.9,52.82,109.88,94.2,134.37l.05,0c13.8,8.11,17.95,14.91,31.24,21.39,2.92,3.53,15.24,7.46,18.22,10.8,42.75,47.71,144.41,78.2,187.16,103.38s82.12,41.94,118.28,50.12,63.36,12.27,81.8,12.27q46.8,0,103.22-17.4a918.13,918.13,0,0,0,116-45q59.67-27.54,121.34-63.35t117.48-72.66c88.54-58.62,251.36-150.35,342.54-225.33ZM1747.08,3007c-22.27,24.63-38.65,40.5-62,65.78l0-.05c-32.24,34.66-57.12,66-88.54,94.34-31.06,27.69-60.82,49.76-89.21,66.51-4.26,2.49-8.41,4.72-12.48,6.77,6.36-26.52,15.69-44,28.11-70.55q38.49-82.27,96.27-165.6c38.5-55.49,73.2-110.75,118.15-165.6l1.32-1.63C1739.14,2896.79,1738.82,2948.76,1747.08,3007Zm45.2-701.24.15-.32h0ZM657.77,2572.43l38.76-58.34L667.88,2566l-6.62,8.62ZM6382.41,3480c-39.91-44.68-75.67-105.47-106.56-182.44l-15.06-37.51-28.1,29.06a1831,1831,0,0,1-149.35,138l-.05,0a1143.76,1143.76,0,0,1-162.22,113c-56.22,31.8-112.4,57.29-169.45,76.57h0c-56,19-112,28.28-168.25,28.29-79.94,0-147.35-16.57-203.63-48.57l0,0a438.88,438.88,0,0,1-143.63-130.88c-38.7-55.13-67.5-117.49-86.65-188.13-17.17-63.17-25.55-128.81-27.35-196.71l-.95-35.93-64.9,22.76a506.07,506.07,0,0,1-150.72,22.87c-92.77,0-164.91-19-218.51-54.41-55.44-36.81-99.16-84.69-131.87-144.8l-.05-.09q-50.13-91.42-74.51-206.54-24.66-117.18-40-237.6l-2.91-22.91h-72.34l-351,978.29q-26.67,74.24-49.84,121.56c-15.44,31.31-31,56.55-45.92,74.83l-44.09,35.93c-15.85,6.7-33.31,10.3-53,10.31-49.12,0-85.71-10.47-112.06-29l0,0-.09-.07c-28.12-19.58-49.58-45.73-65.22-79.84l0-.06c-16.1-35-27-75.3-32.49-121.13a1233.59,1233.59,0,0,1-8.52-146.14q0-83.28,9.53-195.1,9.61-112,25.87-236.74v0c9.56-72.86,21.18-147.5,33.75-223.07l2.32-14-10.43-9.6c-53.79-49.51-110.17-103.34-169.94-162.5q-100.45-99.51-198.69-169.19-96.45-68.61-166.27-115.09l-20.9-13.87-30.12,41.36-9.38,12.87,7.11,14.25a1009.24,1009.24,0,0,1,81.61,230.09c18.12,80.41,27.31,172.08,27.31,274.3q0,110.72-24.49,223.75a1153.67,1153.67,0,0,1-70.56,218.38l0,0a1061.52,1061.52,0,0,1-112.79,197.2l0,0c-44.21,61.18-94.49,113.82-151,158.57l-.73.58.72-.57a711.26,711.26,0,0,1-184.75,105.85c-66.29,25.79-136.69,38.73-212,38.74-109.25,0-200.49-23.82-276-70.4l-.05,0c-67.31-41.36-123.2-94.27-169.46-158.23l-16.63-23-32.75,27.9A1146.72,1146.72,0,0,1,1524.68,3617l-.11,0q-111.73,28.15-214,28.06c-90.42,0-163.14-10.53-217.38-30h0c-55.62-19.87-97.74-45.84-127.61-76.81-30.68-32.07-51-67.09-62-106.39a474,474,0,0,1-17.35-128.67c0-27.82,3.38-63.7,10.3-106.36,6.73-41.74,19.66-89.58,39.19-143.24l.09-.23-.07.19q28.91-79.89,82.09-177.55l0,0q52.37-96.37,137.37-208c22.55-22.94,43.26-43.54,62.14-62.22,19.33-19.13,36.23-36.12,50.78-51.73l.81-.86,33.48-43.11,3.14-4,13-46.09,1-3.48v-3.61c0-30.41-5.27-57.12-17.76-79.53l-3.35-6-47.29-29-6.3-3.85h-7.39c-33.43.68-64.57,19.05-101.43,49.27l0,0c-39.88,33.54-78.93,86.11-119.62,158.09l.09-.15L450.64,3530c-29.29,44.35-58,74.26-83.93,90.38-26.38,16.24-57,24.67-94.07,24.73-51.74,0-89.72-10.62-116-28.88-28-19.56-49.13-45.57-64.14-79.69l0-.05c-15.29-34.7-25.31-76.12-29.61-124-4.42-49.06-6.65-101.93-6.65-157.94q0-110.6,7.76-294.5v0q7.5-183.45,23-403.36Q102.47,2337,128.36,2096.8q25.88-240,62.32-466.07,14.26-77.89,34.95-190.79,20.64-111.86,55.87-238.76,35.63-127.76,74.72-268.59A2072.65,2072.65,0,0,1,451.14,663.5h0A2099.25,2099.25,0,0,1,577.71,416l.11-.18-.09.16Q647.51,299.41,733.81,212.6h0Q819.59,126.24,921.34,76.5c66.95-32.76,139.88-49.19,219.8-49.22,62.72,0,112.52,10.27,150,29,38.62,19.27,68.39,45.33,91,79.17,22.78,34.38,39.32,76,49,125.72v0q14.82,75.66,15,165.5,0,161.57-40.85,349.19A3680,3680,0,0,1,1301.13,1154q-63.26,190.11-138,369.46-74.86,179.74-143.88,324.38l-.2.42.19-.4q-69.08,145-121.71,244.25v0c-35.26,66.45-58.72,110.08-70,130.31l.17.09L647.31,2592.82l-.67.89.54-.61L637,2614l-4,20,31-24c4-3,6.53-5.14,8-7,46.26-58.54,114.42-105.16,168.31-175.35q82.55-107.49,162.26-205.12l0,0q80.1-98.28,161.32-204.55l.08-.11c53-69.58,93.07-113.41,113.66-127.73l.08-.06.07,0c37.16-26.92,83.69-50.37,139.67-70h0c54.57-19.15,115.72-28.92,183.86-28.92,31.78,0,61.7,7.39,90.86,22.52,29.33,15.34,54.8,36.7,77.07,65.39l0,0,0,0c22.23,28.46,40.16,63.53,53.51,105.53,13.18,41.34,20,88.26,20,140.88.09,47.82-16.13,108.21-50.37,179.92q-52.18,109.23-108.55,189.28-57.14,81.45-124,163-68,83.07-126.44,167.28-58.87,84.87-98.42,169.44c-27.12,57.86-41.08,116.71-41.06,175.7,0,50.77,12,92.93,42.37,120.43,29.72,26.48,71.58,37.15,122.52,37.2,31.8,0,64-10.8,96.93-30l.12-.07c32-18.85,64.39-43,97.58-72.61l0-.06,0,0q49-44.12,98.88-97.64l0,0c27-29.14,52.3-58.73,77.25-88.31l7.63-9-1.73-11.69c-9.3-62.86-15.59-125.65-15.59-188.6q0-251,62.13-429.31,62.11-179.68,177-311.1l0,0c76.43-87.69,169.78-156.48,280.88-207.08,110.47-50.27,234.89-75.63,374.21-75.64q179,0,334,55.2l0,0a1278.81,1278.81,0,0,1,293.41,149.16Q3478,2104,3596.31,2245.85c29.1,34.93,56.79,68.64,84.62,102.61l34.39,42,18.09-83.49q34.78-147.13,59.6-244.75v0q24.74-97.17,49-158.59l.14-.35.12-.32c9.39-26,18.67-46.27,27.3-60.68l31-34.34,37.75-14.26c17.9-2.86,41.43-4.47,69.87-4.46,29.74,0,53.14,1.39,69.3,3.76l31.65,17.66c3.89,7.25,7.4,19,8.66,35.33v.09c1.86,22.06,2.89,52.94,2.88,92.19,0,46.33-3.23,113.39-9.55,200.36v0q-7,94.44-7,172.55,0,31,1.12,59.49l1,25.18h62.58l7.24-14.49q38.82-77.62,96.68-203v0q56.8-123,118.3-202.93c40.85-53.17,87.1-97.72,138.72-134.14,49.44-34.66,105.64-51.93,171.61-52a181.07,181.07,0,0,1,62.31,11l.09,0h0a157.75,157.75,0,0,1,52.24,30.54l0,0c15.42,13.78,21.92,17.72,24.41,18.43-.2,2.48,1.51,9.93,10.56,29.72,8.48,18.59,13,40.05,13,65.16,0,19.26-3,48.88-9.29,87.32s-16.35,89-30.4,151.47v-.08c-14.43,63.31-24.56,115.6-31.22,156.59l0,.07v.08c-6.46,41.37-9.92,76.06-9.93,105.18,0,48,4.59,88.72,14.55,123l0,0c9.7,33,22.71,60.83,40.21,83l1.92,2.42,52.38,41.22,2.81,2.21,3.29,1.38a177.45,177.45,0,0,0,68.85,13.69c61.85,0,124.94-13.8,189.18-40.49l.49-.2,41.19-19,9.19-4.24,3.95-9.32c10.42-24.63,19.65-48.21,30.79-70.28q60.17-119.42,134.13-250.1v0q71.68-126.69,190.79-231.58,119.9-105.17,244.29-157.67l.05,0q125.09-53.16,267.56-66.51l23.18-2.19.55-23.28q5.76-247.89,52.45-435.12v0q47.29-190.56,101.74-410.13Q6310.81,774,6395.85,591.82l0-.05q85-182.88,185.83-314.83c66.95-88,137.75-156,212.35-204.81C6868,23.83,6942.55.42,7019.83.36c55.89.11,100.71,14.24,138.55,42,38.81,28.91,70.31,67.25,95.18,116.23,24.82,49.25,43.15,107.18,54.25,173.79a1270.45,1270.45,0,0,1,17,208.9q0,68.22-1.22,140.66-5.46,272.81-84,506.71-79.84,238.14-157.84,470.85v0Q7004.64,1890.65,6895.1,2117c-112.34,232.73-183.84,390.31-215.32,475.4l0,.09,0,.13c-6.9,19.17-13.87,42-20.6,68.54l0-.14c-6.92,26.6-13.36,55.31-19.57,86.17l0,.12v0c-6.06,31.13-11.05,62.8-15.21,95.23a749,749,0,0,0-6.15,95.87,875.08,875.08,0,0,0,6.76,110.37c4.51,35.46,12.09,67.55,23,96.42,11.14,29.57,26.7,54.38,47,73.23,21.6,20.25,50.33,30.52,80.66,30.32,27.9,0,57.22-5.58,88.11-15.87s62.34-24.1,95.49-41.62l-.12.06q49.42-25.82,99.39-58.37l.1-.06q49.53-32.52,96.17-65.63l.16-.11.18-.14q90.15-66.11,186.81-147.25l48.88,340q-130.11,106-256,189.28-55.2,36.39-116.24,71.89c-40.58,23.41-80.19,44.31-119.2,62.32l-.05,0a880.42,880.42,0,0,1-112.51,43.55l-.22.07.13,0c-35.68,11.06-67.53,16.23-95.42,16.22-14.69.08-40.89-3.62-76.11-11.63h0c-32.59-7.39-69.78-22.8-110.8-47C6464.77,3561.05,6423.84,3526.22,6382.41,3480Z" transform="translate(36 83.05)"/></svg>