<svg id="Layer_1" data-name="Layer 1" xmlns="http://www.w3.org/2000/svg" viewBox="0 0 25.56 30.09"><title>logo-single-no-white</title><path d="M26.28,3.21c-3.19,0-6.37,0-9.56,0-2.1,0-2.87.74-2.88,2.87,0,3.88,0,7.76,0,11.65,0,.4,0,.92-.06,1.28l-.38,0c-4.86,0-7.93,1.94-9.85,6.16h0c-.06.13-.11.27-.17.41a6,6,0,0,0-.25,3.21A5.76,5.76,0,0,0,5.51,32.2h0a7.79,7.79,0,0,0,2.52,1,16,16,0,0,0,6.07-.5c3.39-.74,6.36-3.82,6.39-3.85l.19-.3a9.94,9.94,0,0,0,1-4.75c0-.15,0-.31,0-.46v-.68h0c0-4.35,0-8.71,0-13.07,0-.85.38-1.18,1.21-1.15,1.13,0,2.25,0,3.38,0C28,8.4,28.54,7.83,28.55,6,28.57,3.75,28.15,3.22,26.28,3.21ZM20.8,25.47a6,6,0,0,1-1.3,3,8.09,8.09,0,0,1-.56.61,9.13,9.13,0,0,1-1.35,1.08h0c.29-.3.59-.6.87-.92a8.77,8.77,0,0,0,1.24-1.8,7.4,7.4,0,0,0,.74-3.57c-.14-4.77,0-9.55,0-14.32,0-.29-.13-1,.36-.87,0,.32,0,.64,0,1q0,7.45,0,14.91A5.43,5.43,0,0,1,20.8,25.47ZM23.56,7.62c-1.17,0-2.33,0-3.49,0-1.56,0-2,.43-2,2,0,4.7-.28,9.41,0,14.09.29,4.53-3.68,7.74-6.92,8.39a6.94,6.94,0,0,1-4.75-.5A4.56,4.56,0,0,1,4,25.74a9.17,9.17,0,0,1,9.23-6l1.28.12V18.44q0-6.18,0-12.34c0-1.74.47-2.21,2.21-2.21,2.29,0,4.58,0,6.86,0,1.34,0,1.4.77,1.39,1.74C25,7.22,24.74,7.59,23.56,7.62Z" transform="translate(-2.99 -3.19)"/></svg>