<svg id="Layer_1" data-name="Layer 1" xmlns="http://www.w3.org/2000/svg" viewBox="0 0 45 33.54"><title>logo-cartoon</title><path d="M14.54,27V12.83c0-2.93.47-3.41,3.42-3.41H39.53c2.26,0,2.94.65,2.94,2.87,0,6.76.06,13.52.05,20.28,0,3.83-3.87,7.75-8.08,8.26l-.57,0c-2.74.17-5.28-.33-6.63-3s-.34-5.17,1.48-7.27A9.9,9.9,0,0,1,36.84,27L38,27c.09,0,.18-.05.36-.11a6.43,6.43,0,0,0,.13-.91q0-5,0-9.93c0-1.72-.55-2.27-2.21-2.27q-7.62,0-15.25,0c-1.77,0-2.38.65-2.38,2.47,0,5.32,0,10.64,0,16,0,4-3.46,8-7.88,8.56a10.69,10.69,0,0,1-4.36-.31A5,5,0,0,1,3,34a10.05,10.05,0,0,1,9-7C12.77,27,13.58,27,14.54,27Z" transform="translate(-2 -8.62)" style="fill:#fff"/><path d="M37.28,40.69c3.12-1.93,6.27-4.56,6.37-8.38.06-2.25,0-4.5-.07-6.76,0-4.26-.09-8.53-.16-12.79,0-1-.16-2.21-.23-3.24C44.87,9,45.94,10,46,12c0,6.32-.13,12.66.14,19a8.55,8.55,0,0,1-3.43,7.74,41.27,41.27,0,0,1-4.87,2.72C37.7,41.35,37.37,40.81,37.28,40.69Z" transform="translate(-2 -8.62)"/><path d="M22.24,14.85c0,5.91,0,11.74,0,17.57,0,3.54-3.25,7.33-7.3,8.1.46-.43.72-.71,1-1a9.76,9.76,0,0,0,3.8-8.39c-.19-4.73-.13-9.47-.16-14.21C19.58,14.82,19.83,14.61,22.24,14.85Z" transform="translate(-2 -8.62)"/><path d="M47,31.2v0h0c0-1,0-1.94-.05-2.91,0-5.37,0-10.74-.07-16.11,0-2.48-1-3.54-3.47-3.54l-26.18,0c-2.35,0-3.42,1.07-3.42,3.43,0,4.12,0,8.25,0,12.37,0,.56,0,1.11,0,1.69-.51,0-.79.07-1.07.06-5.07-.09-9.55,3.63-10.53,7.72,0,.15-.63,2.88.59,4.69A8.56,8.56,0,0,0,8,41.74,23.62,23.62,0,0,0,15,41.56a15.35,15.35,0,0,0,2.76-.91c3.52-2.25,5.59-4.81,5.41-8.83v-.06c0-.27,0-.54-.07-.82h0l-.07-1.59A1.36,1.36,0,0,1,23,29c0-.4,0-.79,0-1.18V27.7h0c0-3.83,0-7.67,0-11.51,0-1.06.46-1.55,1.57-1.55,3.87,0,7.75,0,11.62,0,.82,0,1.46.23,1.47,1.17,0,3.39,0,6.78,0,10.37a11.6,11.6,0,0,0-10.92,5.67A7,7,0,0,0,26,33.57a1.76,1.76,0,0,1,0,.31,6.36,6.36,0,0,0,1.59,6.17,5.64,5.64,0,0,0,3,1.58c4.16.57,5.61.81,8.81,0A12.75,12.75,0,0,0,45,38.16l.23-.27.08-.09A8,8,0,0,0,46,36.67a8.88,8.88,0,0,0,.68-1.88s0,0,0-.06h0A11.9,11.9,0,0,0,47,32.3C47,31.93,47,31.57,47,31.2Zm-32,9.32c.46-.43.72-.71,1-1a9.76,9.76,0,0,0,3.8-8.39c-.19-4.73-.13-9.47-.16-14.21,0-2.15.24-2.36,2.65-2.12,0,5.91,0,11.74,0,17.57C22.26,36,19,39.75,14.94,40.52Zm18.93.35c-2.74.17-5.28-.33-6.63-3s-.34-5.17,1.48-7.27A9.9,9.9,0,0,1,36.84,27L38,27c.09,0,.18-.05.36-.11a6.43,6.43,0,0,0,.13-.91q0-5,0-9.93c0-1.72-.55-2.27-2.21-2.27q-7.62,0-15.25,0c-1.77,0-2.38.65-2.38,2.47,0,5.32,0,10.64,0,16,0,4-3.46,8-7.88,8.56a10.69,10.69,0,0,1-4.36-.31A5,5,0,0,1,3,34a10.05,10.05,0,0,1,9-7c.81,0,1.62,0,2.58,0V12.83c0-2.93.47-3.41,3.42-3.41H39.53c2.26,0,2.94.65,2.94,2.87,0,6.76.06,13.52.05,20.28,0,3.83-3.87,7.75-8.08,8.26Zm8.79-2.12a21.87,21.87,0,0,1-3.51,2,4.73,4.73,0,0,1-1.46.37l.6-.47c3.11-1.93,5.26-4.54,5.36-8.36.06-2.25,0-4.5-.07-6.76,0-4.26-.09-8.53-.16-12.79,0-1-.09-2.14-.16-3.16C44.75,9.41,45.94,10,46,12c0,6.32-.13,12.66.14,19A8.55,8.55,0,0,1,42.66,38.75Z" transform="translate(-2 -8.62)"/></svg>